<?xml version="1.0" encoding="utf-8"?>
<!-- Generator: Adobe Illustrator 24.0.2, SVG Export Plug-In . SVG Version: 6.00 Build 0)  -->
<svg version="1.1" id="Layer_1" xmlns="http://www.w3.org/2000/svg" xmlns:xlink="http://www.w3.org/1999/xlink" x="0px" y="0px"
	 viewBox="0 0 3014.56 172.37" style="enable-background:new 0 0 3014.56 172.37;" xml:space="preserve">
<style type="text/css">
	.st0{fill:#B4DFE8;}
</style>
<path class="st0" d="M0.19,172.69h1918.38v0.09h1095.88l0.11-172.28c-136,0.24-136.39,44-273.15,44c-137.14,0-137.14-44-274.28-44
	c-137.14,0-137.14,44-274.29,44c-136.66,0-137.15-43.68-272.84-43.99V0.41c-119.12,0.24-119.46,44-239.25,44
	c-120.12,0-120.12-44-240.24-44s-120.12,44-240.25,44c-119.83,0-121-43.78-240.24-43.99V0.41c-0.13,0-0.25,0-0.37,0
	c-0.17,0-0.33,0-0.5,0l0,0.01C840.91,0.87,840.26,44.41,720.77,44.41c-120.12,0-120.12-44-240.24-44s-120.12,44-240.25,44
	s-120.12-44-240.24-44v172.28"/>
</svg>
