<svg xmlns="http://www.w3.org/2000/svg" width="447" height="447" viewBox="0 0 447 447">
  <g id="Group_20" data-name="Group 20" transform="translate(-346 -1324)">
    <circle id="Ellipse_2" data-name="Ellipse 2" cx="223.5" cy="223.5" r="223.5" transform="translate(346 1324)" fill="#f1f4f3"/>
    <g id="Group_2" data-name="Group 2" transform="translate(425 1389)">
      <path id="Path_13" data-name="Path 13" d="M182.349,164.822l3.43,3.885-5.121.26c-.667.033-1.349.065-2.016.081l-.033-.927,1.691-4.146.78-.667Q181.691,164.09,182.349,164.822Z" transform="translate(104.199 98.01)"/>
      <path id="Path_14" data-name="Path 14" d="M247.939,263.889l-.78.667c-1.544.146-3.089.293-4.617.423a73.569,73.569,0,0,1-9.657-17.07,105.144,105.144,0,0,1-6.308-23.264c-2.52-15.867-1.918-31.9-1.138-47.585.732-15.688,1.74-31.36-.146-46.723a141.758,141.758,0,0,0-12.924-44.284,148.66,148.66,0,0,0-26.337-37.993c-1.366-1.382-2.617-2.861-4.048-4.162l-4.276-3.934L175.578,38c-.732-.634-1.5-1.219-2.244-1.821l-4.519-3.642c-1.479-1.252-3.138-2.243-4.715-3.381l-4.763-3.3-4.975-2.959c-1.674-.959-3.284-2.048-5.056-2.845l-5.17-2.6c-.878-.406-1.723-.878-2.617-1.252l-2.666-1.105c-3.577-1.447-7.137-2.991-10.811-4.1a87.254,87.254,0,0,0-22.4-4,44.675,44.675,0,0,0-11.2,1.138A37.777,37.777,0,0,0,84,12.553a33.661,33.661,0,0,0-8.535,7.608,28.13,28.13,0,0,0-3.008,4.812c-.244.049-.471.1-.7.146a26.681,26.681,0,0,1,2.7-5.674,34.518,34.518,0,0,1,8.259-8.8A40.471,40.471,0,0,1,93.5,4.961a48.537,48.537,0,0,1,12.063-2.292,49.494,49.494,0,0,1,12.209.683,100.874,100.874,0,0,1,11.738,2.991c3.853,1.154,7.527,2.747,11.234,4.259l2.78,1.138c.927.39,1.8.878,2.7,1.317l5.381,2.666c1.821.845,3.479,1.967,5.219,2.959l5.154,3.056,4.942,3.414c1.609,1.171,3.333,2.211,4.861,3.512l4.666,3.755c.78.634,1.577,1.236,2.325,1.886l2.211,2.032,4.406,4.064c1.479,1.349,2.78,2.861,4.178,4.292a153.215,153.215,0,0,1,27.2,39.228,146.814,146.814,0,0,1,13.38,45.861c1.935,15.932.894,31.848.163,47.52-.78,15.672-1.333,31.311,1.089,46.577a100.267,100.267,0,0,0,6.015,22.175A66.773,66.773,0,0,0,247.939,263.889Z" transform="translate(37.342 -2.568)"/>
      <path id="Path_15" data-name="Path 15" d="M181.427,163.72l-1.691,4.146c-1.024-1.219-2-2.455-2.926-3.723C178.338,164.013,179.883,163.866,181.427,163.72Z" transform="translate(103.073 98.267)"/>
      <path id="Path_16" data-name="Path 16" d="M191.087,170.85l.032.927a89.613,89.613,0,0,1-12.5-.341,35.084,35.084,0,0,1-14.16-4.308,21.525,21.525,0,0,1-5.267-4.406c-.211-1.252-.39-2.52-.52-3.772a19.317,19.317,0,0,0,7.039,5.836,32.219,32.219,0,0,0,13.168,2.78,77.611,77.611,0,0,0,9.283-.439C189.087,168.4,190.063,169.631,191.087,170.85Z" transform="translate(91.723 95.282)"/>
      <path id="Path_17" data-name="Path 17" d="M168.737,186.164l.618,1.3-1.414.5a45.084,45.084,0,0,1-9.722,2.211c-.211.016-.406.049-.618.049a34.116,34.116,0,0,0-2.341-3.186c.894,0,1.788-.033,2.682-.081a41.058,41.058,0,0,0,7.82-1.138c.179.471.374.943.569,1.414l.8-1.788c-.455.13-.91.26-1.366.374a88.778,88.778,0,0,1-4.991-17.964c-.406-2.569-.7-5.153-.878-7.738a22.719,22.719,0,0,0,1.431,1.87c.293,1.87.65,3.723,1.057,5.56A86.758,86.758,0,0,0,168.737,186.164Z" transform="translate(89.589 96.014)"/>
      <path id="Path_18" data-name="Path 18" d="M163.086,175.7l-.8,1.788c-.2-.471-.39-.943-.569-1.414C162.175,175.96,162.63,175.83,163.086,175.7Z" transform="translate(93.631 105.763)"/>
      <path id="Path_19" data-name="Path 19" d="M160.993,183.81a34.69,34.69,0,0,1,3.105,18.858,38.511,38.511,0,0,0-9.608-23.849,33.246,33.246,0,0,0,3.593-.179A38.574,38.574,0,0,1,160.993,183.81Z" transform="translate(89.107 107.603)"/>
      <path id="Path_20" data-name="Path 20" d="M159.089,159.576c.13,1.252.309,2.52.52,3.772a22.749,22.749,0,0,1-1.431-1.87c-.081-1.171-.146-2.357-.179-3.528A17.7,17.7,0,0,0,159.089,159.576Z" transform="translate(91.303 94.657)"/>
      <path id="Path_21" data-name="Path 21" d="M167.616,91.759a61.566,61.566,0,0,1-.455,13.51,35.2,35.2,0,0,1-4.178,13.12,19.816,19.816,0,0,1-4.666,5.43,18.1,18.1,0,0,1-6.487,3.268,13.209,13.209,0,0,1-9.9-1.154c.309-.845.6-1.691.862-2.552a10.929,10.929,0,0,0,8.194.569,15.038,15.038,0,0,0,5.235-2.764,17.57,17.57,0,0,0,4.032-4.5,32.153,32.153,0,0,0,4.341-11.835,58.618,58.618,0,0,0,.927-12.957A61.663,61.663,0,0,0,164.9,85.4a14.115,14.115,0,0,0-2.032-5.853,7.372,7.372,0,0,0-5.04-3.04h-.049c-.341-.293-.683-.585-1.024-.862-.211-.163-.423-.325-.634-.471a12.234,12.234,0,0,1,1.886.049,8.8,8.8,0,0,1,6.161,3.365,15.457,15.457,0,0,1,2.569,6.487A57.787,57.787,0,0,1,167.616,91.759Z" transform="translate(81.248 42.854)"/>
      <path id="Path_22" data-name="Path 22" d="M157.093,176.749a34.079,34.079,0,0,1,2.341,3.186,33.232,33.232,0,0,1-3.593.179,34.424,34.424,0,0,0-3.512-3.544C153.923,176.684,155.516,176.749,157.093,176.749Z" transform="translate(87.755 106.307)"/>
      <path id="Path_23" data-name="Path 23" d="M157.562,81.776l-.276.2a27.1,27.1,0,0,0-6.519-5.592,5.621,5.621,0,0,0-.667-.406,9.68,9.68,0,0,1,2.569.065A24.638,24.638,0,0,1,157.562,81.776Z" transform="translate(86.36 43.326)"/>
      <path id="Path_24" data-name="Path 24" d="M170.333,182.474c-1.577,0-3.17-.065-4.763-.179a34.284,34.284,0,0,0-12.6-7.316,45.423,45.423,0,0,0-8.876-1.756c-3.772-.439-7.641-.585-11.591-.862-.471-1.642-.91-3.284-1.333-4.942,4.389.423,8.925.618,13.51,1.236a48.876,48.876,0,0,1,9.673,2.292,34.969,34.969,0,0,1,8.828,4.731A38.343,38.343,0,0,1,170.333,182.474Z" transform="translate(74.515 100.582)"/>
      <path id="Path_25" data-name="Path 25" d="M152.214,75.641c.341.276.683.569,1.024.862a9.68,9.68,0,0,0-2.569-.065c-.488-.325-.975-.618-1.479-.894a13.069,13.069,0,0,1,2.39-.374C151.791,75.316,152,75.479,152.214,75.641Z" transform="translate(85.791 42.86)"/>
      <path id="Path_26" data-name="Path 26" d="M152.906,76.6a13.065,13.065,0,0,0-2.39.374c-1.122-.634-2.276-1.219-3.446-1.756.016-.764.049-1.544.1-2.325A45.446,45.446,0,0,1,152.906,76.6Z" transform="translate(84.464 41.433)"/>
      <path id="Path_27" data-name="Path 27" d="M150.585,75.4c.5.276.992.569,1.479.894a11.286,11.286,0,0,0-3.544.91,14.342,14.342,0,0,0-1.561.829c.016-.358.016-.715.033-1.073a12.494,12.494,0,0,1,1.122-.634A12.878,12.878,0,0,1,150.585,75.4Z" transform="translate(84.395 43.004)"/>
      <path id="Path_28" data-name="Path 28" d="M147.925,73.209c-.049.78-.081,1.561-.1,2.325-.65-.309-1.3-.6-1.967-.878.163-.764.341-1.512.536-2.276l.39.2C147.177,72.786,147.551,73,147.925,73.209Z" transform="translate(83.707 41.114)"/>
      <path id="Path_29" data-name="Path 29" d="M148.378,74.658q-.1,1.658-.146,3.316a16.811,16.811,0,0,0-3.251,2.682c.439-2.292.91-4.585,1.431-6.877C147.077,74.056,147.728,74.349,148.378,74.658Z" transform="translate(83.156 41.99)"/>
      <path id="Path_30" data-name="Path 30" d="M148.3,76.36c-.016.358-.016.715-.032,1.073a18.237,18.237,0,0,0-3.4,2.747c.016-.2.049-.39.065-.585.033-.179.065-.374.114-.553A16.814,16.814,0,0,1,148.3,76.36Z" transform="translate(83.088 43.605)"/>
      <path id="Path_31" data-name="Path 31" d="M150.852,77.02c-.032.845-.065,1.691-.081,2.536-.667,5.722-1.219,11.494-1.951,17.249a138.441,138.441,0,0,1-5.284,25.41,11.64,11.64,0,0,1-2.764-1.9c-.016-.016-.016-.016-.033-.016a137.469,137.469,0,0,0,4.845-23.9c.7-5.511,1.268-11.055,1.87-16.631A18.24,18.24,0,0,1,150.852,77.02Z" transform="translate(80.503 44.018)"/>
      <path id="Path_32" data-name="Path 32" d="M169.686,85.708c-.2.764-.374,1.512-.536,2.276-.016-.016-.049-.016-.065-.032l-8.064-3.333c-2.682-1.2-5.4-2.292-8.047-3.593a189.173,189.173,0,0,1-30.092-18.273c-4.877-3.56-9.64-7.3-14.241-11.217a6.254,6.254,0,0,1,.862-.455q1.488.439,2.975.829,5.828,4.536,11.9,8.714A290.147,290.147,0,0,0,154.42,78.1C159.411,80.749,164.565,83.042,169.686,85.708Z" transform="translate(60.418 27.787)"/>
      <path id="Path_33" data-name="Path 33" d="M143.843,105.558c-.26.862-.553,1.707-.862,2.552a12.83,12.83,0,0,1-2.731-2.032c.293-.813.553-1.626.8-2.439.016,0,.016,0,.033.016A11.638,11.638,0,0,0,143.843,105.558Z" transform="translate(80.197 60.674)"/>
      <path id="Path_34" data-name="Path 34" d="M160.407,107.172c-.715,2.032-1.528,4.048-2.422,6.031a61.817,61.817,0,0,1-9.413,15.038,68.537,68.537,0,0,1-13.217,11.8,120.19,120.19,0,0,1-15.184,8.828q-3.877,1.488-7.771,2.845c.065-.715.13-1.447.2-2.162,2.065-1.171,4.113-2.357,6.129-3.609a115.78,115.78,0,0,0,14.778-8.568,65.488,65.488,0,0,0,12.6-11.25,58.589,58.589,0,0,0,8.925-14.258c.992-2.195,1.87-4.454,2.65-6.73A12.832,12.832,0,0,0,160.407,107.172Z" transform="translate(62.771 61.613)"/>
      <path id="Path_35" data-name="Path 35" d="M133.091,172.419l-1.187-.1c-.585-1.658-1.138-3.316-1.675-4.991.5.065,1.008.114,1.528.146C132.181,169.135,132.62,170.777,133.091,172.419Z" transform="translate(73.927 100.526)"/>
      <path id="Path_36" data-name="Path 36" d="M132.9,173.214c-.52-.033-1.024-.081-1.528-.146q-1.609-5.023-2.975-10.112c.309-1.609.683-3.219,1.122-4.8C130.448,163.216,131.586,168.239,132.9,173.214Z" transform="translate(72.782 94.788)"/>
      <path id="Path_37" data-name="Path 37" d="M131.859,167.549c.536,1.674,1.089,3.333,1.674,4.991-1.951-.146-3.9-.341-5.885-.634-.049-1.642-.016-3.284.065-4.926a2.76,2.76,0,0,0,.358.065C129.323,167.256,130.575,167.419,131.859,167.549Z" transform="translate(72.298 100.307)"/>
      <path id="Path_38" data-name="Path 38" d="M150.529,62.292c-3.983-2-7.755-4.243-11.624-6.178a53.546,53.546,0,0,0-11.949-4.519,30.918,30.918,0,0,0-12.518-.293c-.715.146-1.431.309-2.13.52-.943-.374-1.87-.764-2.829-1.122a21.152,21.152,0,0,1,4.243-1.788A27.9,27.9,0,0,1,127.8,48.49,39.7,39.7,0,0,1,140.32,54,62.663,62.663,0,0,1,150.529,62.292Z" transform="translate(60.944 25.727)"/>
      <path id="Path_39" data-name="Path 39" d="M128.979,154.61c.309,1.935.65,3.853,1.024,5.771-.439,1.577-.813,3.186-1.122,4.8-.439-1.642-.862-3.3-1.252-4.958C128,158.333,128.459,156.463,128.979,154.61Z" transform="translate(72.3 92.567)"/>
      <path id="Path_40" data-name="Path 40" d="M131.388,73.081a12.77,12.77,0,0,1,.406,10.5,16.2,16.2,0,0,0-2.617-9.25,13.445,13.445,0,0,0-6.113-4.991c-.211-1.219-.471-2.439-.764-3.642.244.049.471.13.715.2a15.358,15.358,0,0,1,4.942,2.731A14,14,0,0,1,131.388,73.081Z" transform="translate(68.965 36.934)"/>
      <path id="Path_41" data-name="Path 41" d="M128.162,158.06c.39,1.658.813,3.316,1.252,4.958a69.241,69.241,0,0,0-1.171,9.543q-.732-.1-1.463-.244A71.241,71.241,0,0,1,128.162,158.06Z" transform="translate(71.768 94.725)"/>
      <path id="Path_42" data-name="Path 42" d="M126.78,166.83q.732.146,1.463.244c-.081,1.642-.114,3.284-.065,4.926l-.325-.049-.878-.146Q126.8,169.317,126.78,166.83Z" transform="translate(71.768 100.213)"/>
      <path id="Path_43" data-name="Path 43" d="M130.547,167.906q.024,2.487.2,4.975a39.494,39.494,0,0,1-8.828-2.536c-.39-.163-.764-.341-1.154-.536.374-1.171.7-2.374.975-3.56.081-.374.146-.764.211-1.138.585.309,1.2.585,1.821.845A33.538,33.538,0,0,0,130.547,167.906Z" transform="translate(68.002 99.137)"/>
      <path id="Path_44" data-name="Path 44" d="M128.915,68.071a37.483,37.483,0,0,1,.585,8.551,26.093,26.093,0,0,1-1.837,8.259,20.494,20.494,0,0,1-2.016,3.82,8.884,8.884,0,0,1-3.528,3.138,5.063,5.063,0,0,1-2.731.406,4.881,4.881,0,0,1-2.552-1.268,9.985,9.985,0,0,1-2.406-4.129,25.837,25.837,0,0,1-1.479-8.454,28.268,28.268,0,0,1,.927-7.381,14.913,14.913,0,0,1,2.764-2.032,36.4,36.4,0,0,0-.439,9.283,38.953,38.953,0,0,0,1.3,7.625,7.152,7.152,0,0,0,1.349,3.024,1.96,1.96,0,0,0,2.276.52c1.951-.748,3.5-3.121,4.6-5.414a24.385,24.385,0,0,0,2.146-7.543,35.765,35.765,0,0,0,.049-8.746C128.264,67.828,128.59,67.958,128.915,68.071Z" transform="translate(63.115 38.205)"/>
      <path id="Path_45" data-name="Path 45" d="M122.569,65.763c.293,1.2.553,2.422.764,3.642-.325-.114-.65-.244-.992-.341-.114-1.154-.276-2.309-.471-3.463C122.114,65.649,122.342,65.7,122.569,65.763Z" transform="translate(68.696 36.872)"/>
      <path id="Path_46" data-name="Path 46" d="M126.718,68a35.766,35.766,0,0,1-.049,8.746,24.384,24.384,0,0,1-2.146,7.543c-1.105,2.292-2.65,4.666-4.6,5.414a1.96,1.96,0,0,1-2.276-.52,7.153,7.153,0,0,1-1.349-3.024,38.958,38.958,0,0,1-1.3-7.625,36.4,36.4,0,0,1,.439-9.283,14.136,14.136,0,0,1,2.292-1.105,13.4,13.4,0,0,1,8.941-.163C126.686,67.985,126.7,68,126.718,68Z" transform="translate(64.319 37.933)"/>
      <path id="Path_47" data-name="Path 47" d="M126.5,69.2c-.016,0-.033-.016-.049-.016a13.4,13.4,0,0,0-8.941.163,14.14,14.14,0,0,0-2.292,1.106c.163-1.008.374-2.032.634-3.04.2-.13.39-.244.6-.358a13.472,13.472,0,0,1,9.575-1.317C126.226,66.89,126.389,68.044,126.5,69.2Z" transform="translate(64.535 36.736)"/>
      <path id="Path_48" data-name="Path 48" d="M122.591,165.354c-.065.374-.13.764-.211,1.138-.276,1.187-.6,2.39-.975,3.56-.569-.26-1.122-.553-1.674-.862a38.881,38.881,0,0,0,1.691-4.471C121.811,164.931,122.2,165.159,122.591,165.354Z" transform="translate(67.357 98.893)"/>
      <path id="Path_49" data-name="Path 49" d="M148.3,168.332c-.39,1.219-.829,2.422-1.3,3.593a45.467,45.467,0,0,1-3.544,6.7,47.933,47.933,0,0,1-4.747,5.983,44.816,44.816,0,0,1-5.853,4.942,39.94,39.94,0,0,1-6.779,3.625,44.711,44.711,0,0,1-7.348,2.146,45.614,45.614,0,0,1-7.576.715,43.608,43.608,0,0,1-7.56-.715,40.271,40.271,0,0,1-7.267-2.195,33.517,33.517,0,0,1-12.177-8.811,35.143,35.143,0,0,1-7.413-13.981,2.449,2.449,0,0,0,.276-.163c.179-.114.358-.244.537-.374a33.84,33.84,0,0,0,7.8,13.428,35.335,35.335,0,0,0,5.446,4.65,34.321,34.321,0,0,0,6.324,3.284A37.326,37.326,0,0,0,104,192.994a41.6,41.6,0,0,0,7.1.439,42.431,42.431,0,0,0,7.023-.959,43.26,43.26,0,0,0,6.7-2.26A40.806,40.806,0,0,0,136.4,182.3a45.993,45.993,0,0,0,10.226-14.827C147.182,167.779,147.735,168.072,148.3,168.332Z" transform="translate(40.458 100.613)"/>
      <path id="Path_50" data-name="Path 50" d="M127.168,184.073a38.878,38.878,0,0,1-1.691,4.471,24.749,24.749,0,0,1-5.739-4.406c-4.828-5.121-7.218-11.754-8.275-18.175a86.536,86.536,0,0,1-.683-19.314,92.465,92.465,0,0,1,1.788-12.518c.325-.114.667-.228.992-.341a114.637,114.637,0,0,0-.39,12.924c.065,3.121.26,6.259.6,9.348a84.79,84.79,0,0,0,1.431,9.169,46.377,46.377,0,0,0,2.878,8.551,25.036,25.036,0,0,0,4.942,7.121A23.921,23.921,0,0,0,127.168,184.073Z" transform="translate(61.609 79.539)"/>
      <path id="Path_51" data-name="Path 51" d="M119.567,53.805l-.1.309c-2.617-.488-5.219-1.057-7.787-1.723-.6-.455-1.187-.91-1.772-1.382a16.376,16.376,0,0,1,1.951-.7C114.429,51.432,117.014,52.586,119.567,53.805Z" transform="translate(61.213 27.305)"/>
      <path id="Path_52" data-name="Path 52" d="M116.918,66.63c-.26,1.008-.471,2.032-.634,3.04A14.91,14.91,0,0,0,113.52,71.7a26.206,26.206,0,0,1,1.105-3.3A11.385,11.385,0,0,1,116.918,66.63Z" transform="translate(63.471 37.516)"/>
      <path id="Path_53" data-name="Path 53" d="M115.577,67.72a26.208,26.208,0,0,0-1.105,3.3A16.919,16.919,0,0,0,112,73.881,11.929,11.929,0,0,1,115.577,67.72Z" transform="translate(62.52 38.198)"/>
      <path id="Path_54" data-name="Path 54" d="M112.977,132.46c-.065.715-.13,1.447-.2,2.162-.325.114-.667.228-.992.341.146-.7.309-1.4.471-2.1C112.505,132.736,112.733,132.59,112.977,132.46Z" transform="translate(62.389 78.707)"/>
      <path id="Path_55" data-name="Path 55" d="M131.692,107.666l.1.309a47.806,47.806,0,0,1-12.339,4.812,44.433,44.433,0,0,1-6.568.975,33.818,33.818,0,0,1-6.665.016c-2.227-.2-4.422-.358-6.617-.374-2.195-.049-4.454.211-6.7,0a21.4,21.4,0,0,1-6.47-1.853A18.587,18.587,0,0,1,80.84,107.8L81,107.52c2.178.52,4.211,1.138,6.275,1.658,2.048.553,4.1.959,6.129,1.561a35.728,35.728,0,0,0,6.259,1.609,21.017,21.017,0,0,0,6.454-.341c2.13-.439,4.227-.894,6.324-1.284,2.1-.423,4.178-.927,6.292-1.333A104.049,104.049,0,0,1,131.692,107.666Z" transform="translate(43.023 63.102)"/>
      <path id="Path_56" data-name="Path 56" d="M115.246,132.71c-.163.7-.325,1.4-.471,2.1-2.569.894-5.154,1.723-7.755,2.52C109.751,135.766,112.515,134.254,115.246,132.71Z" transform="translate(59.404 78.864)"/>
      <path id="Path_57" data-name="Path 57" d="M109.8,49.61c.894.374,1.772.764,2.666,1.138a16.378,16.378,0,0,0-1.951.7c-.536-.423-1.057-.845-1.577-1.268.276-.2.553-.39.845-.569h.016Z" transform="translate(60.606 26.867)"/>
      <path id="Path_58" data-name="Path 58" d="M112.145,52.122q-1.488-.39-2.975-.829a11.44,11.44,0,0,1,1.2-.553C110.958,51.211,111.544,51.667,112.145,52.122Z" transform="translate(60.75 27.574)"/>
      <path id="Path_59" data-name="Path 59" d="M109.553,49.96c.52.423,1.04.845,1.577,1.268a11.441,11.441,0,0,0-1.2.553c-.667-.179-1.317-.374-1.967-.569A14.567,14.567,0,0,1,109.553,49.96Z" transform="translate(59.993 27.086)"/>
      <path id="Path_60" data-name="Path 60" d="M110.705,50.142c-.293.179-.569.374-.845.569l-2.39-1.951C108.559,49.215,109.632,49.687,110.705,50.142Z" transform="translate(59.686 26.335)"/>
      <path id="Path_61" data-name="Path 61" d="M107.979,50.73c.65.2,1.3.39,1.967.569a6.25,6.25,0,0,0-.862.455c-.39-.309-.78-.634-1.154-.975Z" transform="translate(59.974 27.568)"/>
      <path id="Path_62" data-name="Path 62" d="M109.629,49.692l2.39,1.951a14.57,14.57,0,0,0-1.593,1.252c-.065-.016-.114-.033-.163-.049q-3.17-2.707-6.243-5.576c.211.1.439.2.65.293C106.312,48.278,107.97,48.993,109.629,49.692Z" transform="translate(57.527 25.403)"/>
      <path id="Path_63" data-name="Path 63" d="M109.213,50.76c.374.341.764.667,1.154.975a17.264,17.264,0,0,0-4.487,3.56A13.035,13.035,0,0,1,109.213,50.76Z" transform="translate(58.691 27.586)"/>
      <path id="Path_64" data-name="Path 64" d="M108.023,50.749l-.049.049a.3.3,0,0,1-.114-.1C107.909,50.716,107.958,50.733,108.023,50.749Z" transform="translate(59.93 27.549)"/>
      <path id="Path_65" data-name="Path 65" d="M121.528,58.94q3.073,2.878,6.243,5.576c-2.292-.7-4.552-1.463-6.8-2.276a106.644,106.644,0,0,1-18.387-9.055,101.958,101.958,0,0,1-16.5-12.177,77.108,77.108,0,0,1-9.982-11.25c-.016-.374-.033-.764-.065-1.138A75.125,75.125,0,0,0,87.16,39.772a98.425,98.425,0,0,0,16.712,11.152C109.562,53.981,115.594,56.338,121.528,58.94Z" transform="translate(40.02 13.733)"/>
      <path id="Path_66" data-name="Path 66" d="M108.308,97.056a33.893,33.893,0,0,0,6-.1,11.22,11.22,0,0,1-5.853,2.634,21.958,21.958,0,0,1-6.357.1c-2.065-.228-4.048-.65-6.015-1.057L90.1,97.381a15.224,15.224,0,0,1,6.21-1.268,44.6,44.6,0,0,1,6.145.358C104.439,96.682,106.373,96.942,108.308,97.056Z" transform="translate(48.817 55.959)"/>
      <path id="Path_67" data-name="Path 67" d="M112.537,113.86l.26.211a10.863,10.863,0,0,1-4.8,5.576,13.271,13.271,0,0,1-7.3,1.561,17.691,17.691,0,0,1-7.1-1.707A16.118,16.118,0,0,1,88.07,115.1l.228-.228a16.55,16.55,0,0,0,5.9,3.121,15.112,15.112,0,0,0,6.405.618,25.851,25.851,0,0,0,5.95-1.87A47.308,47.308,0,0,0,112.537,113.86Z" transform="translate(47.547 67.069)"/>
      <path id="Path_68" data-name="Path 68" d="M95.118,136.939a71.576,71.576,0,0,1-10.34-1.008c-.016-.732-.033-1.479-.049-2.211A105.412,105.412,0,0,0,95.118,136.939Z" transform="translate(45.457 79.496)"/>
      <path id="Path_69" data-name="Path 69" d="M89.885,135.168c.244,9.624.406,19.232-.2,28.986-.471,6.373-1.691,13.054-5.3,18.988a24.042,24.042,0,0,1-6.73,7.007,30.537,30.537,0,0,1-1.089-5.121,19.517,19.517,0,0,0,3.934-4.389,29.4,29.4,0,0,0,3.593-7.95,66.45,66.45,0,0,0,1.8-8.941c1.122-9.462,1.723-19.151,2.731-28.808C89.039,135.021,89.462,135.1,89.885,135.168Z" transform="translate(40.351 80.259)"/>
      <path id="Path_70" data-name="Path 70" d="M85.193,133.858c.016.732.032,1.479.049,2.211-.423-.065-.845-.146-1.252-.228.081-.78.163-1.561.26-2.341C84.559,133.63,84.884,133.744,85.193,133.858Z" transform="translate(44.994 79.358)"/>
      <path id="Path_71" data-name="Path 71" d="M105.124,151.777c-.1.78-.179,1.561-.26,2.341-1.837-.341-3.674-.748-5.495-1.2A89.282,89.282,0,0,1,83.583,145.7a81.021,81.021,0,0,1-25.589-23.248c-3.4-4.861-5.527-10.453-7.251-15.9-.032-.114-.081-.244-.114-.358.049-.016.081-.033.13-.049a9.667,9.667,0,0,0,2.666-1.853c.13.423.276.845.406,1.268,1.707,5.381,3.69,10.551,6.844,15.054a78,78,0,0,0,24.548,22.272,85.577,85.577,0,0,0,15.2,6.958C101.97,150.542,103.531,151.176,105.124,151.777Z" transform="translate(24.12 61.081)"/>
      <path id="Path_72" data-name="Path 72" d="M78.843,49.789a17.262,17.262,0,0,1,7.966,8.177,24.26,24.26,0,0,0-8.99-5.869,22.973,22.973,0,0,0-4-1.04c.293-.959.536-1.918.764-2.878A18.985,18.985,0,0,1,78.843,49.789Z" transform="translate(38.631 25.972)"/>
      <path id="Path_73" data-name="Path 73" d="M81.676,75.048a16.9,16.9,0,0,0-2.1-3.121,24.418,24.418,0,0,0-.7-3.447A11.986,11.986,0,0,1,81.676,75.048Z" transform="translate(41.797 38.674)"/>
      <path id="Path_74" data-name="Path 74" d="M85.556,72.515a27.726,27.726,0,0,1,.033,7.43,26.117,26.117,0,0,1-2.5,8.21,9.864,9.864,0,0,1-2.894,3.8,4.82,4.82,0,0,1-2.682.943,5.15,5.15,0,0,1-2.666-.732,8.978,8.978,0,0,1-3.121-3.544,20.692,20.692,0,0,1-1.528-4.048,25.854,25.854,0,0,1-.813-8.4,37.314,37.314,0,0,1,1.609-8.4,7.718,7.718,0,0,1,1.024-.228,36.6,36.6,0,0,0-1.008,8.681,24.4,24.4,0,0,0,1.2,7.755c.829,2.406,2.081,4.958,3.918,5.918a1.967,1.967,0,0,0,2.325-.228,7.432,7.432,0,0,0,1.707-2.845,40.724,40.724,0,0,0,2.211-7.4,36.067,36.067,0,0,0,.683-9.283A15.662,15.662,0,0,1,85.556,72.515Z" transform="translate(35.82 38.086)"/>
      <path id="Path_75" data-name="Path 75" d="M79.681,69.256a24.424,24.424,0,0,1,.7,3.447,15.662,15.662,0,0,0-2.5-2.374c-.049-1.024-.13-2.048-.276-3.089A11.111,11.111,0,0,1,79.681,69.256Z" transform="translate(40.996 37.898)"/>
      <path id="Path_76" data-name="Path 76" d="M82.408,70.25a36.07,36.07,0,0,1-.683,9.283,40.726,40.726,0,0,1-2.211,7.4,7.432,7.432,0,0,1-1.707,2.845A1.967,1.967,0,0,1,75.483,90c-1.837-.959-3.089-3.512-3.918-5.918a24.4,24.4,0,0,1-1.2-7.755,36.6,36.6,0,0,1,1.008-8.681.06.06,0,0,1,.049-.016,13.394,13.394,0,0,1,8.844,1.252A14.94,14.94,0,0,1,82.408,70.25Z" transform="translate(36.464 37.977)"/>
      <path id="Path_77" data-name="Path 77" d="M81.742,68.379c.146,1.04.228,2.065.276,3.089A14.937,14.937,0,0,0,79.873,70.1a13.394,13.394,0,0,0-8.844-1.252.06.06,0,0,0-.049.016c.26-1.138.553-2.26.894-3.381a14.531,14.531,0,0,1,4.194.211,13.724,13.724,0,0,1,5.154,2.26A4.223,4.223,0,0,1,81.742,68.379Z" transform="translate(36.854 36.76)"/>
      <path id="Path_78" data-name="Path 78" d="M81.049,15.77l.049.488a74.16,74.16,0,0,0-9.478,2.617c.276-.732.6-1.463.927-2.162A57.653,57.653,0,0,1,81.049,15.77Z" transform="translate(37.254 5.693)"/>
      <path id="Path_79" data-name="Path 79" d="M77.916,170.871c-.179.13-.358.26-.536.374a2.434,2.434,0,0,1-.276.163,32.658,32.658,0,0,1-.943-5.153c.228-.163.455-.341.667-.5A30.534,30.534,0,0,0,77.916,170.871Z" transform="translate(40.095 99.537)"/>
      <path id="Path_80" data-name="Path 80" d="M82.38,166.06a32.656,32.656,0,0,0,.943,5.154,34.887,34.887,0,0,1-8.958,3.983,74.348,74.348,0,0,1-8.145,1.74c.406-1.658.764-3.349,1.024-5.056,1.967-.374,3.885-.813,5.755-1.366a29.645,29.645,0,0,0,8-3.463A16.465,16.465,0,0,0,82.38,166.06Z" transform="translate(33.875 99.731)"/>
      <path id="Path_81" data-name="Path 81" d="M77.995,29.7a102.706,102.706,0,0,1-.715,19.346,96.5,96.5,0,0,1-2.195,11.315,17.82,17.82,0,0,0-2.065-.406,97.642,97.642,0,0,0,2.617-11.169A102.4,102.4,0,0,0,77.3,28.71C77.507,29.035,77.735,29.377,77.995,29.7Z" transform="translate(38.13 13.789)"/>
      <path id="Path_82" data-name="Path 82" d="M76.29,28.933c.033.374.049.764.065,1.138-.26-.325-.488-.667-.7-.992,0-.325,0-.65-.016-.959C75.851,28.4,76.063,28.656,76.29,28.933Z" transform="translate(39.769 13.42)"/>
      <path id="Path_83" data-name="Path 83" d="M76.522,29.165c.016.309.016.634.016.959-.813-1.138-1.577-2.309-2.309-3.5l.276-.179C75.157,27.377,75.823,28.271,76.522,29.165Z" transform="translate(38.887 12.375)"/>
      <path id="Path_84" data-name="Path 84" d="M75.441,48.336c-.228.959-.471,1.918-.764,2.878a20.3,20.3,0,0,0-2.227-.26q.512-1.512.927-3.024A17.824,17.824,0,0,1,75.441,48.336Z" transform="translate(37.773 25.816)"/>
      <path id="Path_85" data-name="Path 85" d="M86.635,49.79a20.306,20.306,0,0,1,2.227.26A109.305,109.305,0,0,1,84.9,61.706c-3.447,8.259-7.56,16.42-13.916,23.053a32.374,32.374,0,0,1-5.267,4.519,32.815,32.815,0,0,1-6.178,3.008,52.023,52.023,0,0,1-8.925,2.5,9.24,9.24,0,0,0-.829-.764,69.413,69.413,0,0,0,8.941-3.609,36.012,36.012,0,0,0,5.479-3.3,31.337,31.337,0,0,0,4.5-4.438c1.382-1.642,2.7-3.333,3.95-5.088,1.219-1.788,2.39-3.593,3.56-5.446a116.981,116.981,0,0,0,6.21-11.51A103.126,103.126,0,0,0,86.635,49.79Z" transform="translate(23.588 26.979)"/>
      <path id="Path_86" data-name="Path 86" d="M82.587,48.009c-.309,1.057-.683,2.113-1.073,3.154a23.945,23.945,0,0,0-4.584.179,26.286,26.286,0,0,0-11.006,4.081,26.894,26.894,0,0,0-8.194,8.486,17.537,17.537,0,0,1,6.292-10.5,23.98,23.98,0,0,1,12.388-5.43A25.333,25.333,0,0,1,82.587,48.009Z" transform="translate(28.563 25.736)"/>
      <path id="Path_87" data-name="Path 87" d="M72.01,16.5c.228-.049.455-.1.7-.146-.325.7-.65,1.431-.927,2.162a3.256,3.256,0,0,0-.423.163A20.889,20.889,0,0,1,72.01,16.5Z" transform="translate(37.091 6.055)"/>
      <path id="Path_88" data-name="Path 88" d="M93.56,16.44a20.881,20.881,0,0,0-.65,2.178,72.355,72.355,0,0,0-17.9,9.315,76.56,76.56,0,0,0-11.331,9.933A109.112,109.112,0,0,0,54.2,49.67a110.479,110.479,0,0,0-7.982,13.038,100.654,100.654,0,0,0-6.145,14.111c-.634,1.837-1.2,3.674-1.74,5.527L36.92,81.94q.8-2.8,1.658-5.609c1.528-4.975,3.2-9.917,5.186-14.778A103.793,103.793,0,0,1,50.8,47.442,70.323,70.323,0,0,1,72.9,24.8,60.278,60.278,0,0,1,93.56,16.44Z" transform="translate(15.542 6.112)"/>
      <path id="Path_89" data-name="Path 89" d="M71.537,65.541a5.593,5.593,0,0,1,.732-.081c-.341,1.122-.634,2.243-.894,3.382a7.709,7.709,0,0,0-1.024.228C70.708,67.866,71.1,66.7,71.537,65.541Z" transform="translate(36.459 36.784)"/>
      <path id="Path_90" data-name="Path 90" d="M75,65.608a5.393,5.393,0,0,1,.715-.1c-.439,1.154-.829,2.325-1.187,3.528a13.338,13.338,0,0,0-6.665,4.194,16.188,16.188,0,0,0-3.723,8.876A12.716,12.716,0,0,1,65.816,71.72a13.962,13.962,0,0,1,3.934-4A15.851,15.851,0,0,1,75,65.608Z" transform="translate(32.28 36.816)"/>
      <path id="Path_91" data-name="Path 91" d="M65.836,166.294q1.292-.488,2.585-1.024c-.065,1.04-.146,2.065-.276,3.073-.8.455-1.626.878-2.455,1.284C65.771,168.505,65.82,167.4,65.836,166.294Z" transform="translate(33.544 99.237)"/>
      <path id="Path_92" data-name="Path 92" d="M68.251,167.16c-.146,1.349-.325,2.7-.569,4.032-.715.146-1.431.276-2.162.406.13-1.04.228-2.1.276-3.154C66.625,168.038,67.455,167.615,68.251,167.16Z" transform="translate(33.437 100.419)"/>
      <path id="Path_93" data-name="Path 93" d="M65.8,170.047c.732-.13,1.447-.26,2.162-.406-.26,1.707-.618,3.4-1.024,5.056-.634.114-1.252.211-1.87.309C65.379,173.363,65.623,171.7,65.8,170.047Z" transform="translate(33.156 101.971)"/>
      <path id="Path_94" data-name="Path 94" d="M77.032,166.875c.959-.309,1.9-.634,2.845-.975-.016,1.105-.065,2.211-.146,3.333-.52.244-1.057.471-1.577.7a40.98,40.98,0,0,1-14.209,2.78,51.569,51.569,0,0,1-14.323-1.333,47.714,47.714,0,0,1-6.373-2.048,11.993,11.993,0,0,0,1.089-.764,46.961,46.961,0,0,0,5.592,1.219,49.746,49.746,0,0,0,13.8.341A69.978,69.978,0,0,0,77.032,166.875Z" transform="translate(19.503 99.631)"/>
      <path id="Path_95" data-name="Path 95" d="M81.893,169.89c-.179,1.658-.423,3.316-.732,4.958-2.991.455-5.934.845-8.8,1.366a50.229,50.229,0,0,0-8.779,2.179,33.471,33.471,0,0,0-7.852,4.1,37.9,37.9,0,0,0-15.8,31.539,33.889,33.889,0,0,1,1.951-18.907,37.83,37.83,0,0,1,11.575-15.672,33.383,33.383,0,0,1,8.616-5.04,57,57,0,0,1,9.429-2.731C75.016,170.979,78.512,170.475,81.893,169.89Z" transform="translate(17.064 102.128)"/>
      <path id="Path_96" data-name="Path 96" d="M53.689,105.043v.016a9.667,9.667,0,0,1-2.666,1.853c-.049.016-.081.033-.13.049q-.366-1.1-.683-2.195a8.288,8.288,0,0,0,2.878-1.707C53.283,103.727,53.478,104.393,53.689,105.043Z" transform="translate(23.858 60.311)"/>
      <path id="Path_97" data-name="Path 97" d="M55.121,118.916a8.288,8.288,0,0,1-2.878,1.707,132.345,132.345,0,0,1-3.43-14.176,117.393,117.393,0,0,1-1.853-17.2,91.316,91.316,0,0,1,1.317-11.38q.634-.049,1.268-.146a106.5,106.5,0,0,0,.7,11.429,107.17,107.17,0,0,0,1.772,16.712A124.815,124.815,0,0,0,55.121,118.916Z" transform="translate(21.824 44.456)"/>
      <path id="Path_98" data-name="Path 98" d="M57.818,122.042q.317,1.1.683,2.195a10.666,10.666,0,0,1-6.357.536,15.222,15.222,0,0,1-5.82-2.731,20.665,20.665,0,0,1-6.893-10.307A35.766,35.766,0,0,1,38.1,99.7a80.507,80.507,0,0,1,1.544-11.738,24.951,24.951,0,0,1,1.837-5.755,13.238,13.238,0,0,1,3.837-4.845,9.006,9.006,0,0,1,5.918-1.9,9.5,9.5,0,0,1,3.235.829q-.146.561-.244,1.122a8.3,8.3,0,0,0-3.04-.65,7.431,7.431,0,0,0-4.861,1.886c-2.829,2.309-4.016,6-4.6,9.706a77.309,77.309,0,0,0-1.024,11.4,31.1,31.1,0,0,0,1.788,10.941,22.391,22.391,0,0,0,2.39,4.845,15.853,15.853,0,0,0,3.463,3.951c2.617,2.243,6.226,3.544,9.445,2.569C57.8,122.059,57.8,122.059,57.818,122.042Z" transform="translate(16.25 43.036)"/>
      <path id="Path_99" data-name="Path 99" d="M51.06,77.764c-.374.065-.764.13-1.154.2-.179-.146-.341-.26-.52-.39a2.233,2.233,0,0,0-.325-.211c.406-.114.8-.228,1.171-.358A9.225,9.225,0,0,1,51.06,77.764Z" transform="translate(23.138 44.005)"/>
      <path id="Path_100" data-name="Path 100" d="M49.711,77.431c.179.13.341.244.52.39-.553.081-1.122.163-1.674.211-.016-.179-.016-.358-.016-.553.293-.081.569-.163.845-.26A2.238,2.238,0,0,1,49.711,77.431Z" transform="translate(22.813 44.143)"/>
      <path id="Path_101" data-name="Path 101" d="M49.022,77.38c0,.2,0,.374.016.553q-.634.1-1.268.146a3.077,3.077,0,0,1,.081-.374C48.241,77.608,48.632,77.494,49.022,77.38Z" transform="translate(22.331 44.243)"/>
      <path id="Path_102" data-name="Path 102" d="M48.8,74.31c-.033,1.008-.033,2.016-.033,3.008-.2-.1-.406-.211-.618-.309C48.345,76.1,48.556,75.2,48.8,74.31Z" transform="translate(22.569 42.322)"/>
      <path id="Path_103" data-name="Path 103" d="M48.862,76.279c0,.406,0,.813.016,1.219A7.239,7.239,0,0,0,48,77.092q.1-.561.244-1.122C48.455,76.068,48.667,76.181,48.862,76.279Z" transform="translate(22.475 43.361)"/>
      <path id="Path_104" data-name="Path 104" d="M48.991,77.066a5.992,5.992,0,0,0,0,.764c-.39.114-.78.228-1.171.325.081-.5.179-1.008.293-1.5A7.233,7.233,0,0,1,48.991,77.066Z" transform="translate(22.362 43.792)"/>
      <path id="Path_105" data-name="Path 105" d="M50.537,156.88l-.26,5.332a14.663,14.663,0,0,1-.244,2.048l-.78-.13-4.032-2.162-1.171-.455a25.729,25.729,0,0,0,2.195-1.463Z" transform="translate(20.003 93.987)"/>
      <path id="Path_106" data-name="Path 106" d="M47.889,77.58a3.071,3.071,0,0,0-.081.374h-.033l-.065-.325C47.775,77.613,47.824,77.6,47.889,77.58Z" transform="translate(22.293 44.368)"/>
      <path id="Path_107" data-name="Path 107" d="M50.748,161.34l.78.13a15,15,0,0,1-1.3,3.918,16.657,16.657,0,0,1-3.528,4.861,15.308,15.308,0,0,1-1.366,1.171c-1.236-.341-2.455-.748-3.674-1.2a16.238,16.238,0,0,0,2.113-2.52,17.013,17.013,0,0,0,1.918-3.642A19.763,19.763,0,0,0,50.748,161.34Z" transform="translate(18.508 96.778)"/>
      <path id="Path_108" data-name="Path 108" d="M45.164,160.01l4.032,2.162a19.765,19.765,0,0,1-5.056,2.715c.081-.163.13-.341.2-.5A16.487,16.487,0,0,0,45.164,160.01Z" transform="translate(20.059 95.946)"/>
      <path id="Path_109" data-name="Path 109" d="M56.364,160.393l1.171.455a16.488,16.488,0,0,1-.829,4.373c-.065.163-.114.341-.2.5a29.428,29.428,0,0,1-7.186,1.544,31.111,31.111,0,0,1-12.5-1.463,37.462,37.462,0,0,1-10.876-5.739c-.536-.39-1.057-.813-1.577-1.219h.276a19.728,19.728,0,0,0,2.585-.179,39.213,39.213,0,0,0,10.4,4.259,27.783,27.783,0,0,0,11.152.358A22.032,22.032,0,0,0,56.364,160.393Z" transform="translate(7.689 95.107)"/>
      <path id="Path_110" data-name="Path 110" d="M45.559,168a11.989,11.989,0,0,1-1.089.764c-1.073-.423-2.13-.878-3.17-1.4a6.479,6.479,0,0,0,.585-.569C43.1,167.255,44.324,167.662,45.559,168Z" transform="translate(18.282 100.194)"/>
      <path id="Path_111" data-name="Path 111" d="M56.036,56.73l1.414.406a169.365,169.365,0,0,0-4.845,24.678c-1.284,10.242-2.292,20.533-3.772,30.824a233.359,233.359,0,0,1-5.95,30.759,120.388,120.388,0,0,1-12.144,29.1l-2.1,3.365-2.26,3.235a33.513,33.513,0,0,1-5.349,6.064,13.077,13.077,0,0,1-7.56,3.316A9.125,9.125,0,0,1,7.1,186.706c-.244-.439-.5-.894-.732-1.349l.016-.016a8.04,8.04,0,0,0,6.877,1.577,11.989,11.989,0,0,0,6.1-3.56,30.952,30.952,0,0,0,4.357-6.015l1.886-3.316,1.772-3.382A145.672,145.672,0,0,0,37.86,142.031c2.617-9.868,4.682-19.931,6.438-30.092,1.74-10.177,3.447-20.419,5.69-30.58C51.76,73.085,53.727,64.875,56.036,56.73Z" transform="translate(-3.574 31.322)"/>
      <path id="Path_112" data-name="Path 112" d="M37.066,153.847l-3.365,3.5a13.752,13.752,0,0,1-1.642,1.463l-.536-.683-1.512-4.243.179-1.089c.667.114,1.333.228,2,.325Z" transform="translate(11.218 91.428)"/>
      <path id="Path_113" data-name="Path 113" d="M35.883,156.508l.536.683a17.582,17.582,0,0,1-8.356,3.544c-.081-.049-.179-.1-.26-.146a51.885,51.885,0,0,1-4.763-3.2,18.421,18.421,0,0,0,2.146-.26,16.807,16.807,0,0,0,5.154-1.756A35.287,35.287,0,0,0,35.883,156.508Z" transform="translate(6.857 93.042)"/>
      <path id="Path_114" data-name="Path 114" d="M31.562,153.46l1.512,4.243a35.294,35.294,0,0,1-5.544-1.138A14.671,14.671,0,0,0,31.562,153.46Z" transform="translate(9.666 91.847)"/>
      <path id="Path_115" data-name="Path 115" d="M46.057,165.336l-.179,1.089a14.672,14.672,0,0,1-4.032,3.105,53.76,53.76,0,0,1-8.941-3.512,56.748,56.748,0,0,1-12.485-8.389A51.752,51.752,0,0,1,4.65,132.9l.455-.163A46.064,46.064,0,0,0,7.446,137.8L7.1,138.1a6.481,6.481,0,0,0,1.073,1.04,54.68,54.68,0,0,0,14.16,16.143,51.489,51.489,0,0,0,12.242,6.991A53.685,53.685,0,0,0,46.057,165.336Z" transform="translate(-4.65 78.882)"/>
      <path id="Path_116" data-name="Path 116" d="M28.479,159.813c.081.049.179.1.26.146a19.733,19.733,0,0,1-2.585.179h-.276a50.618,50.618,0,0,1-3.918-3.512c.6.016,1.187.016,1.756-.016A51.87,51.87,0,0,0,28.479,159.813Z" transform="translate(6.181 93.818)"/>
      <path id="Path_117" data-name="Path 117" d="M6.5,135.85c.228.455.488.91.732,1.349a6.478,6.478,0,0,1-1.073-1.04Z" transform="translate(-3.705 80.828)"/>
    </g>
  </g>
</svg>
