<?xml version="1.0" encoding="utf-8"?>
<!-- Generator: Adobe Illustrator 19.0.0, SVG Export Plug-In . SVG Version: 6.00 Build 0)  -->
<svg version="1.1" id="Layer_1" xmlns="http://www.w3.org/2000/svg" xmlns:xlink="http://www.w3.org/1999/xlink" x="0px" y="0px"
	 viewBox="-148 106.5 72 72" style="enable-background:new -148 106.5 72 72;" xml:space="preserve">
<path id="instagram-circle-icon" d="M-94.9,126.8v4.4c0,0.7-0.6,1.3-1.3,1.3h-4.3c-0.7,0-1.3-0.6-1.3-1.3v-4.4
	c0-0.7,0.6-1.3,1.3-1.3h4.3C-95.5,125.5-94.9,126.1-94.9,126.8z M-111.5,148.6c3.3,0,5.9-2.6,5.9-5.9s-2.6-5.9-5.9-5.9
	s-5.9,2.6-5.9,5.9C-117.4,145.9-114.7,148.6-111.5,148.6z M-76,142.5c0,19.9-16.1,36-36,36s-36-16.1-36-36s16.1-36,36-36
	S-76,122.6-76,142.5z M-91.2,136.7h-11.9c1.2,1.7,1.9,3.8,1.9,6c0,5.7-4.6,10.4-10.4,10.4c-5.7,0-10.4-4.6-10.4-10.4
	c0-2.2,0.7-4.3,1.9-6h-11.6v18.2c0,4.4,3.6,8,8,8h24.5c4.4,0,8-3.6,8-8V136.7z M-111.5,150.7c4.4,0,8-3.6,8-8c0-2.4-1.1-4.5-2.7-6
	c-0.6-0.5-1.2-0.9-2-1.3c-1-0.5-2.1-0.7-3.3-0.7s-2.3,0.3-3.3,0.7c-0.7,0.3-1.4,0.8-2,1.3c-1.7,1.5-2.7,3.6-2.7,6
	C-119.5,147.1-115.9,150.7-111.5,150.7z M-91.2,130.2c0-4.4-3.6-8-8-8h-21.9v10.1h-1.6v-10.1h-0.9c-0.1,0-0.1,0-0.2,0v10.1h-1.6
	v-9.9c-0.4,0.1-0.8,0.2-1.2,0.4v9.5h-1.6v-8.6c-2,1.5-3.4,3.8-3.4,6.5v5.3h12.8c1.9-1.9,4.5-3.1,7.4-3.1s5.5,1.2,7.4,3.1h12.9
	L-91.2,130.2L-91.2,130.2z"/>
</svg>
