<svg id="Layer_1" data-name="Layer 1" xmlns="http://www.w3.org/2000/svg" viewBox="0 0 178.37 194.47"><defs><style>.cls-1{fill:#2d2d2d;}</style></defs><title>about-picture-lightgrey</title><path class="cls-1" d="M36.17,153.66l.93,2.61a21.35,21.35,0,0,1-3.4-.7A9.13,9.13,0,0,0,36.17,153.66Z" transform="translate(-10.82 -2.77)"/><path class="cls-1" d="M122.14,66.61a8.56,8.56,0,0,1,3.31-1,8.72,8.72,0,0,1,2.59.19c.11.71.22,1.42.29,2.13h0a8.24,8.24,0,0,0-5.5.1,8.41,8.41,0,0,0-1.42.68c.1-.62.23-1.25.39-1.87Z" transform="translate(-10.82 -2.77)"/><path class="cls-1" d="M72.38,173c.25-1,.48-2.06.64-3.11,1.2-.23,2.38-.5,3.53-.84a18.3,18.3,0,0,0,4.93-2.13c.28-.19.57-.39.84-.61a21.3,21.3,0,0,0,.58,3.17,21.55,21.55,0,0,1-5.5,2.45A45.41,45.41,0,0,1,72.38,173Z" transform="translate(-10.82 -2.77)"/><path class="cls-1" d="M118.17,71.71a7.25,7.25,0,0,1,2.19-3.79,16.12,16.12,0,0,0-.68,2A9.93,9.93,0,0,0,118.17,71.71Z" transform="translate(-10.82 -2.77)"/><path class="cls-1" d="M113.63,49l2,.85c-.18.11-.35.23-.52.35Z" transform="translate(-10.82 -2.77)"/><path class="cls-1" d="M167.88,176.13l.84-.23-.48,1.1Q168,176.57,167.88,176.13Z" transform="translate(-10.82 -2.77)"/><path class="cls-1" d="M54,77.78a.93.93,0,0,0,0,.23h0l-.05-.2Z" transform="translate(-10.82 -2.77)"/><path class="cls-1" d="M71.68,170.09c.08-.64.14-1.29.18-1.94.5-.25,1-.51,1.5-.79-.08.83-.2,1.66-.34,2.48Z" transform="translate(-10.82 -2.77)"/><path class="cls-1" d="M71.94,166.1c.54-.2,1.06-.41,1.6-.63q-.06,1-.18,1.89c-.49.28-1,.54-1.5.79C71.9,167.46,71.94,166.78,71.94,166.1Z" transform="translate(-10.82 -2.77)"/><path class="cls-1" d="M55.59,177.84a23.34,23.34,0,0,0-9.72,19.4,20.85,20.85,0,0,1,1.21-11.63A23.1,23.1,0,0,1,54.2,176a20.37,20.37,0,0,1,5.3-3.1,35.06,35.06,0,0,1,5.8-1.68c2.16-.43,4.3-.74,6.38-1.1-.1,1-.26,2-.44,3-1.84.28-3.65.52-5.42.84a30.9,30.9,0,0,0-5.4,1.34A20.59,20.59,0,0,0,55.59,177.84Z" transform="translate(-10.82 -2.77)"/><path class="cls-1" d="M13,136.88a4,4,0,0,1-.66-.64l.22-.19C12.67,136.33,12.84,136.61,13,136.88Z" transform="translate(-10.82 -2.77)"/><path class="cls-1" d="M114.12,50.93a9,9,0,0,1,1-.77c.32.26.64.52,1,.78-.25.1-.5.21-.75.34Z" transform="translate(-10.82 -2.77)"/><path class="cls-1" d="M77.7,65.66c-.22.69-.4,1.38-.56,2.08a4.61,4.61,0,0,0-.62.14c.22-.74.46-1.46.72-2.17A3.8,3.8,0,0,1,77.7,65.66Z" transform="translate(-10.82 -2.77)"/><path class="cls-1" d="M118.68,132.66l-.12,1.33-.61.21c.1-.43.19-.86.29-1.29C118.4,132.83,118.54,132.74,118.68,132.66Z" transform="translate(-10.82 -2.77)"/><path class="cls-1" d="M54.72,74.52c0,.62,0,1.23,0,1.84l-.38-.19C54.44,75.61,54.56,75.07,54.72,74.52Z" transform="translate(-10.82 -2.77)"/><path class="cls-1" d="M185.81,163.92l.48-.41c.25.32.52.63.79.93l2.11,2.39L186,167l-1.25,0v-.57h0Z" transform="translate(-10.82 -2.77)"/><path class="cls-1" d="M82.9,169.43l.18-.1.32-.23a21.05,21.05,0,0,0,4.8,8.26,19.34,19.34,0,0,0,7.24,4.88,23.39,23.39,0,0,0,4.23,1.13,25.65,25.65,0,0,0,4.38.27,26,26,0,0,0,4.31-.59,26.61,26.61,0,0,0,4.12-1.39,25.1,25.1,0,0,0,7.12-4.87,28.32,28.32,0,0,0,6.3-9.12c.34.19.68.37,1,.53-.24.75-.5,1.49-.8,2.21a28,28,0,0,1-2.18,4.12,28.59,28.59,0,0,1-2.92,3.68,26.31,26.31,0,0,1-3.6,3,24.86,24.86,0,0,1-4.16,2.23,24.75,24.75,0,0,1-9.18,1.76,27,27,0,0,1-4.66-.44A24.91,24.91,0,0,1,95,183.45a22.44,22.44,0,0,1-4.06-2.29A23.26,23.26,0,0,1,87.46,178,21.87,21.87,0,0,1,82.9,169.43Z" transform="translate(-10.82 -2.77)"/><path class="cls-1" d="M50.42,162.9a9.78,9.78,0,0,0,.52-2.69l2.48,1.33a12.05,12.05,0,0,1-3.12,1.67A2,2,0,0,0,50.42,162.9Z" transform="translate(-10.82 -2.77)"/><path class="cls-1" d="M90.9,133.92a64.66,64.66,0,0,0,6.38,2,44.17,44.17,0,0,1-6.36-.62C90.92,134.83,90.9,134.37,90.9,133.92Z" transform="translate(-10.82 -2.77)"/><path class="cls-1" d="M54.72,77.92a1.88,1.88,0,0,1,0-.34l.52-.16a1,1,0,0,1,.2.13,3.81,3.81,0,0,1,.32.24C55.4,77.84,55.05,77.89,54.72,77.92Z" transform="translate(-10.82 -2.77)"/><path class="cls-1" d="M162.86,178.84a20.31,20.31,0,0,1-2.21.11,21.17,21.17,0,0,0-2.16-2.18c1,.07,2,.11,2.93.11A21,21,0,0,1,162.86,178.84Z" transform="translate(-10.82 -2.77)"/><path class="cls-1" d="M135.26,158.36c-.28,1-.5,2-.7,2.95-.26-1-.52-2-.76-3.05.22-1.16.5-2.31.82-3.45C134.81,156,135,157.18,135.26,158.36Z" transform="translate(-10.82 -2.77)"/><path class="cls-1" d="M94.24,114.82l.13-.14A10.18,10.18,0,0,0,98,116.6a9.31,9.31,0,0,0,3.94.38,15.75,15.75,0,0,0,3.66-1.15,29.1,29.1,0,0,0,3.68-1.77l.16.13a6.68,6.68,0,0,1-3,3.43,8.15,8.15,0,0,1-4.48,1,10.93,10.93,0,0,1-4.38-1A9.88,9.88,0,0,1,94.24,114.82Z" transform="translate(-10.82 -2.77)"/><path class="cls-1" d="M133.8,170.21c0-1,0-2,0-3l.22,0c.77.13,1.54.23,2.34.31.32,1,.66,2.05,1,3.07C136.22,170.51,135,170.39,133.8,170.21Z" transform="translate(-10.82 -2.77)"/><path class="cls-1" d="M33.7,155.57a32.73,32.73,0,0,1-5.5-2.16,34.67,34.67,0,0,1-7.68-5.16A31.76,31.76,0,0,1,10.82,133l.27-.1a30.22,30.22,0,0,0,1.45,3.1h0l-.22.19a4,4,0,0,0,.66.64,33.81,33.81,0,0,0,8.72,9.93,31.81,31.81,0,0,0,7.52,4.3A33.27,33.27,0,0,0,36.29,153l-.12.67A9.13,9.13,0,0,1,33.7,155.57Z" transform="translate(-10.82 -2.77)"/><path class="cls-1" d="M72.42,70.46a9.9,9.9,0,0,0-2.3,5.46,7.86,7.86,0,0,1,1-6.39,8.46,8.46,0,0,1,2.42-2.46,9.61,9.61,0,0,1,3.22-1.3,3.56,3.56,0,0,1,.44-.06c-.26.71-.5,1.43-.72,2.17A8.12,8.12,0,0,0,72.42,70.46Z" transform="translate(-10.82 -2.77)"/><path class="cls-1" d="M54.16,76.86c0-.23.1-.46.16-.69l.38.19v.75A3.38,3.38,0,0,0,54.16,76.86Z" transform="translate(-10.82 -2.77)"/><path class="cls-1" d="M48.8,45.1A63.11,63.11,0,0,0,45,53.78c-.39,1.13-.74,2.26-1.06,3.4l-.87-.25c.33-1.15.67-2.3,1-3.45.95-3.06,2-6.1,3.2-9.09a62.65,62.65,0,0,1,4.32-8.68,43.29,43.29,0,0,1,13.6-13.93,37,37,0,0,1,12.7-5.14,12.85,12.85,0,0,0-.4,1.34,44.44,44.44,0,0,0-11,5.73,46.59,46.59,0,0,0-7,6.11,65.93,65.93,0,0,0-5.83,7.26A66.72,66.72,0,0,0,48.8,45.1Z" transform="translate(-10.82 -2.77)"/><path class="cls-1" d="M76.52,67.88a4.61,4.61,0,0,1,.62-.14,23,23,0,0,0-.62,5.34,15.3,15.3,0,0,0,.74,4.77c.52,1.48,1.29,3.05,2.41,3.64a1.21,1.21,0,0,0,1.43-.14,4.71,4.71,0,0,0,1.06-1.75,25.87,25.87,0,0,0,1.36-4.55,22.64,22.64,0,0,0,.42-5.71,10.08,10.08,0,0,1,1.54,1.46,17.48,17.48,0,0,1,0,4.57,16.6,16.6,0,0,1-1.54,5,6.1,6.1,0,0,1-1.79,2.34,3,3,0,0,1-1.65.58,3.19,3.19,0,0,1-1.64-.45A5.6,5.6,0,0,1,77,80.71,13.4,13.4,0,0,1,76,78.22a15.9,15.9,0,0,1-.5-5.17A22.42,22.42,0,0,1,76.52,67.88Z" transform="translate(-10.82 -2.77)"/><path class="cls-1" d="M121.51,82.23A6.17,6.17,0,0,1,120,79.69a15.89,15.89,0,0,1-.91-5.2,17.82,17.82,0,0,1,.57-4.54,9.52,9.52,0,0,1,1.7-1.25,22.85,22.85,0,0,0-.27,5.71,24,24,0,0,0,.81,4.69,4.28,4.28,0,0,0,.82,1.86,1.21,1.21,0,0,0,1.4.32c1.2-.46,2.16-1.92,2.83-3.33a15,15,0,0,0,1.33-4.64,22,22,0,0,0,0-5.38c.21.06.41.14.6.21a22.51,22.51,0,0,1,.37,5.26,16.62,16.62,0,0,1-1.13,5.08,13.28,13.28,0,0,1-1.25,2.35,5.37,5.37,0,0,1-2.16,1.93,3.14,3.14,0,0,1-1.68.25A3,3,0,0,1,121.51,82.23Z" transform="translate(-10.82 -2.77)"/><path class="cls-1" d="M50.09,167.74a28.73,28.73,0,0,0,3.43.75,30.66,30.66,0,0,0,8.5.21,43.23,43.23,0,0,0,8.18-2q.87-.28,1.74-.6c0,.68,0,1.36-.08,2.05l-1,.43a25.21,25.21,0,0,1-8.74,1.71,31.65,31.65,0,0,1-8.8-.82,28.89,28.89,0,0,1-3.92-1.26C49.64,168.07,49.86,167.91,50.09,167.74Z" transform="translate(-10.82 -2.77)"/><path class="cls-1" d="M120.36,67.92a7.29,7.29,0,0,1,1.41-1.09c-.16.62-.29,1.25-.39,1.87a9.52,9.52,0,0,0-1.7,1.25A16.12,16.12,0,0,1,120.36,67.92Z" transform="translate(-10.82 -2.77)"/><path class="cls-1" d="M134.56,161.31c.2-1,.42-2,.7-2.95q.86,4.66,2.07,9.26c-.31,0-.63-.05-.93-.09C135.74,165.47,135.12,163.4,134.56,161.31Z" transform="translate(-10.82 -2.77)"/><path class="cls-1" d="M53.42,161.54l-2.48-1.33-.73-.28a15.83,15.83,0,0,0,1.35-.9l2.64-1.95-.15,3.28a9,9,0,0,1-.15,1.26Z" transform="translate(-10.82 -2.77)"/><path class="cls-1" d="M116.08,50.94c-.34-.26-.66-.52-1-.78.17-.12.34-.24.52-.35h0l1.64.7A9.34,9.34,0,0,0,116.08,50.94Z" transform="translate(-10.82 -2.77)"/><path class="cls-1" d="M112.05,53.75a8.12,8.12,0,0,1,2-2.79c.24.21.47.41.71.6A10.58,10.58,0,0,0,112.05,53.75Z" transform="translate(-10.82 -2.77)"/><path class="cls-1" d="M71.68,170.09l1.34-.25c-.16,1-.39,2.09-.64,3.11l-1.14.19C71.42,172.13,71.58,171.11,71.68,170.09Z" transform="translate(-10.82 -2.77)"/><path class="cls-1" d="M37.1,156.27l-.93-2.61.12-.67,1.23.2,3,.45-2.08,2.15A11.34,11.34,0,0,1,37.1,157Z" transform="translate(-10.82 -2.77)"/><path class="cls-1" d="M32.13,158.78a31.9,31.9,0,0,1-2.93-2,11.08,11.08,0,0,0,1.32-.16,10.4,10.4,0,0,0,3.18-1.08,21.35,21.35,0,0,0,3.4.7V157a11,11,0,0,1-4.8,1.91Z" transform="translate(-10.82 -2.77)"/><path class="cls-1" d="M183,164.18l2.84-.26-1,2.54C184.13,165.71,183.54,165,183,164.18Z" transform="translate(-10.82 -2.77)"/><path class="cls-1" d="M113.18,135.75c1.68-1,3.38-1.89,5.06-2.84-.1.43-.19.86-.29,1.29C116.38,134.75,114.78,135.26,113.18,135.75Z" transform="translate(-10.82 -2.77)"/><path class="cls-1" d="M77.78,17.88c.18-.45.38-.9.58-1.33A35.46,35.46,0,0,1,83.59,16l0,.3A45.31,45.31,0,0,0,77.78,17.88Z" transform="translate(-10.82 -2.77)"/><path class="cls-1" d="M121.11,74.41a22.85,22.85,0,0,1,.27-5.71A8.41,8.41,0,0,1,122.8,68a8.24,8.24,0,0,1,5.5-.1h0a22,22,0,0,1,0,5.38A15,15,0,0,1,127,78c-.67,1.41-1.63,2.87-2.83,3.33a1.21,1.21,0,0,1-1.4-.32,4.28,4.28,0,0,1-.82-1.86A24,24,0,0,1,121.11,74.41Z" transform="translate(-10.82 -2.77)"/><path class="cls-1" d="M82.24,29.52c0-.23,0-.47,0-.7a46.76,46.76,0,0,0,6.85,6.86,60.46,60.46,0,0,0,10.27,6.86c3.51,1.88,7.22,3.33,10.86,4.93q1.89,1.77,3.84,3.43c-1.41-.43-2.8-.9-4.18-1.4a65.15,65.15,0,0,1-11.3-5.57,62.8,62.8,0,0,1-10.16-7.49A48,48,0,0,1,82.24,29.52Z" transform="translate(-10.82 -2.77)"/><path class="cls-1" d="M168.4,164.18a13.48,13.48,0,0,1-3.25-2.71c-.13-.77-.23-1.55-.32-2.32a11.83,11.83,0,0,0,4.34,3.59,19.74,19.74,0,0,0,8.09,1.71,47.65,47.65,0,0,0,5.71-.27c.57.78,1.16,1.53,1.81,2.28h0V167a55.17,55.17,0,0,1-7.69-.21A21.54,21.54,0,0,1,168.4,164.18Z" transform="translate(-10.82 -2.77)"/><path class="cls-1" d="M123.56,58.46c-3-2.19-5.93-4.49-8.76-6.9a3.84,3.84,0,0,1,.53-.28c.61.18,1.23.35,1.84.51q3.58,2.79,7.31,5.36A178.47,178.47,0,0,0,143,67.9c3.08,1.63,6.24,3,9.4,4.68-.12.47-.24.93-.34,1.4,0,0,0,0,0,0l-5-2c-1.64-.74-3.32-1.41-4.94-2.21A116.9,116.9,0,0,1,123.56,58.46Z" transform="translate(-10.82 -2.77)"/><path class="cls-1" d="M127.52,166c-.16.73-.37,1.47-.6,2.19-.34-.16-.68-.34-1-.53a23.87,23.87,0,0,0,1-2.75l.72.39C127.61,165.54,127.58,165.78,127.52,166Z" transform="translate(-10.82 -2.77)"/><path class="cls-1" d="M47.82,167c.76.28,1.5.53,2.27.74-.23.17-.45.33-.67.47-.66-.26-1.32-.54-2-.86A3,3,0,0,0,47.82,167Z" transform="translate(-10.82 -2.77)"/><path class="cls-1" d="M61.32,115.66a36,36,0,0,1-4.46-9.78l-.06-.22.07,0a5.85,5.85,0,0,0,1.65-1.14c.07.26.16.52.24.78A33.88,33.88,0,0,0,63,114.53a47.76,47.76,0,0,0,15.1,13.7,52.55,52.55,0,0,0,9.34,4.28c1,.43,1.92.82,2.9,1.19-.06.48-.12,1-.16,1.44-1.14-.21-2.26-.46-3.38-.74A54.69,54.69,0,0,1,77.06,130,49.94,49.94,0,0,1,61.32,115.66Z" transform="translate(-10.82 -2.77)"/><path class="cls-1" d="M54,77.78c.06-.31.11-.62.18-.92a3.38,3.38,0,0,1,.54.25v.47Z" transform="translate(-10.82 -2.77)"/><path class="cls-1" d="M153.24,74.52c0-.47,0-1,.06-1.43a28,28,0,0,1,3.53,2.28,7.9,7.9,0,0,0-1.47.23C154.67,75.21,154,74.85,153.24,74.52Z" transform="translate(-10.82 -2.77)"/><path class="cls-1" d="M46.94,97.33a14.28,14.28,0,0,0,1.48,3,9.37,9.37,0,0,0,2.13,2.43,6.39,6.39,0,0,0,5.81,1.58h0c.13.45.27.9.43,1.35a6.59,6.59,0,0,1-3.92.33,9.36,9.36,0,0,1-3.58-1.68A12.78,12.78,0,0,1,45.06,98a22,22,0,0,1-.82-7.4,50.94,50.94,0,0,1,1-7.22,15.32,15.32,0,0,1,1.12-3.54,8.14,8.14,0,0,1,2.36-3,5.56,5.56,0,0,1,3.64-1.17,5.9,5.9,0,0,1,2,.51c-.06.23-.12.46-.16.69a5.1,5.1,0,0,0-1.86-.4,4.6,4.6,0,0,0-3,1.16c-1.74,1.42-2.46,3.69-2.82,6a46.25,46.25,0,0,0-.64,7A19.36,19.36,0,0,0,46.94,97.33Z" transform="translate(-10.82 -2.77)"/><path class="cls-1" d="M90.92,135.28l-.76-.14c0-.48.1-1,.16-1.44.18.08.38.15.58.22C90.9,134.37,90.92,134.83,90.92,135.28Z" transform="translate(-10.82 -2.77)"/><path class="cls-1" d="M77.14,67.74c.16-.7.34-1.39.56-2.08a9,9,0,0,1,2.58.13,8.33,8.33,0,0,1,3.16,1.39,2.6,2.6,0,0,1,.32.26c.1.64.14,1.27.18,1.9a9.19,9.19,0,0,0-1.32-.84,8.28,8.28,0,0,0-5.45-.77Z" transform="translate(-10.82 -2.77)"/><path class="cls-1" d="M151.14,78.21c.28-1.41.56-2.82.88-4.23.41.17.81.35,1.22.54,0,.68-.07,1.36-.1,2A11,11,0,0,0,151.14,78.21Z" transform="translate(-10.82 -2.77)"/><path class="cls-1" d="M128.93,68.14c-.13-.75-.29-1.5-.47-2.24.15,0,.3.08.44.12a9.24,9.24,0,0,1,3,1.68,8.64,8.64,0,0,1,2.12,2.74,7.85,7.85,0,0,1,.24,6.46,10,10,0,0,0-1.6-5.69A8.35,8.35,0,0,0,128.93,68.14Z" transform="translate(-10.82 -2.77)"/><path class="cls-1" d="M85.48,70.8a10.08,10.08,0,0,0-1.54-1.46c0-.63-.08-1.26-.18-1.9a7.21,7.21,0,0,1,1.29,1.24A16.58,16.58,0,0,1,85.48,70.8Z" transform="translate(-10.82 -2.77)"/><path class="cls-1" d="M47.82,167a10,10,0,0,0,1.3-1.55,9.64,9.64,0,0,0,1.18-2.24,12.05,12.05,0,0,0,3.12-1.67l.48.08a9.25,9.25,0,0,1-.81,2.41,10.07,10.07,0,0,1-2.17,3,9.3,9.3,0,0,1-.83.72C49.32,167.53,48.58,167.28,47.82,167Z" transform="translate(-10.82 -2.77)"/><path class="cls-1" d="M54.26,95.59A75.05,75.05,0,0,1,53.12,85a58.13,58.13,0,0,1,.82-7l.78-.09a65.51,65.51,0,0,0,.42,7,65.94,65.94,0,0,0,1.1,10.28,74.29,74.29,0,0,0,1.9,8,5.1,5.1,0,0,1-1.77,1A83.87,83.87,0,0,1,54.26,95.59Z" transform="translate(-10.82 -2.77)"/><path class="cls-1" d="M118.69,50.15c-.44.09-.88.19-1.31.31-.58-.22-1.15-.46-1.74-.68a13,13,0,0,1,2.61-1.11,17.27,17.27,0,0,1,8.66-.25,24.42,24.42,0,0,1,7.7,3.39,39.06,39.06,0,0,1,6.29,5.1c-2.46-1.23-4.78-2.61-7.16-3.8a32.94,32.94,0,0,0-7.35-2.78A19,19,0,0,0,118.69,50.15Z" transform="translate(-10.82 -2.77)"/><path class="cls-1" d="M157.84,76.19a5.94,5.94,0,0,0-1.58,0c-.3-.2-.59-.38-.9-.55a7.9,7.9,0,0,1,1.47-.23l.39.29Z" transform="translate(-10.82 -2.77)"/><path class="cls-1" d="M156.67,76.4a2.8,2.8,0,0,0-.41-.25,5.94,5.94,0,0,1,1.58,0,15,15,0,0,1,3,3.53l-.18.12A16.67,16.67,0,0,0,156.67,76.4Z" transform="translate(-10.82 -2.77)"/><path class="cls-1" d="M132.94,167a43.83,43.83,0,0,1,.86-8.77c.24,1,.5,2,.76,3.05a44.18,44.18,0,0,0-.72,5.87Z" transform="translate(-10.82 -2.77)"/><path class="cls-1" d="M152,74c.1-.47.22-.93.34-1.4l.23.12.71.39c0,.48-.06,1-.06,1.43C152.83,74.33,152.43,74.15,152,74Z" transform="translate(-10.82 -2.77)"/><path class="cls-1" d="M115.33,51.28c.25-.13.5-.24.75-.34.35.29.72.57,1.09.85C116.56,51.63,115.94,51.46,115.33,51.28Z" transform="translate(-10.82 -2.77)"/><path class="cls-1" d="M164.83,159.15c.09.77.19,1.55.32,2.32-.31-.37-.6-.75-.88-1.15-.05-.72-.09-1.45-.1-2.17A9.08,9.08,0,0,0,164.83,159.15Z" transform="translate(-10.82 -2.77)"/><path class="cls-1" d="M154.18,107.3a8.63,8.63,0,0,1-4.51,0,8.49,8.49,0,0,1-1.58-.66c.19-.52.37-1,.53-1.57a6.75,6.75,0,0,0,5,.35,9.21,9.21,0,0,0,3.21-1.7,10.63,10.63,0,0,0,2.48-2.77A19.62,19.62,0,0,0,162,93.62a36.66,36.66,0,0,0,.56-8,35.44,35.44,0,0,0-.38-4,8.54,8.54,0,0,0-1.25-3.6,4.54,4.54,0,0,0-3.09-1.87h0l-.62-.53-.39-.29a7.43,7.43,0,0,1,1.15,0,5.39,5.39,0,0,1,3.79,2.07,9.66,9.66,0,0,1,1.59,4,37.7,37.7,0,0,1,.25,12.42,21.63,21.63,0,0,1-2.56,8.07,12.06,12.06,0,0,1-2.88,3.34A11.13,11.13,0,0,1,154.18,107.3Z" transform="translate(-10.82 -2.77)"/><path class="cls-1" d="M153.14,76.56a7.69,7.69,0,0,1,.69-.39,8,8,0,0,1,1.53-.57c.31.17.6.35.9.55a6.94,6.94,0,0,0-2.18.56,9.85,9.85,0,0,0-1,.51C153.13,77,153.13,76.78,153.14,76.56Z" transform="translate(-10.82 -2.77)"/><path class="cls-1" d="M128.46,65.9c.18.74.34,1.49.47,2.24-.19-.07-.39-.15-.6-.21-.07-.71-.18-1.42-.29-2.13Z" transform="translate(-10.82 -2.77)"/><path class="cls-1" d="M54.72,77.92l-.78.09a.93.93,0,0,1,0-.23l.72-.2A1.88,1.88,0,0,0,54.72,77.92Z" transform="translate(-10.82 -2.77)"/><path class="cls-1" d="M146.9,103.84a82.74,82.74,0,0,0,3-14.7c.43-3.39.79-6.8,1.16-10.23a10.84,10.84,0,0,1,2.08-1.69c0,.52,0,1,0,1.56-.41,3.52-.75,7.07-1.2,10.61A86,86,0,0,1,148.62,105a7.37,7.37,0,0,1-1.7-1.17Z" transform="translate(-10.82 -2.77)"/><path class="cls-1" d="M126.92,168.2c.23-.72.44-1.46.6-2.19.06-.23.09-.47.13-.7.37.19.75.36,1.12.52a20.63,20.63,0,0,0,4.17,1.2q0,1.53.12,3.06a24.44,24.44,0,0,1-5.43-1.56Z" transform="translate(-10.82 -2.77)"/><path class="cls-1" d="M83.4,169.1a17.82,17.82,0,0,1-.66-3.15,12.51,12.51,0,0,0,2.42-2.7,18.37,18.37,0,0,0,2.2-4.89,40.89,40.89,0,0,0,1.12-5.5c.68-5.82,1.06-11.78,1.68-17.72l.76.14c.16,5.92.25,11.83-.12,17.83a25.72,25.72,0,0,1-3.25,11.68A14.82,14.82,0,0,1,83.4,169.1Z" transform="translate(-10.82 -2.77)"/><path class="cls-1" d="M81.8,28.32a5.72,5.72,0,0,1,0,.59c-.5-.7-1-1.42-1.42-2.15l.16-.11C81,27.22,81.37,27.77,81.8,28.32Z" transform="translate(-10.82 -2.77)"/><path class="cls-1" d="M77.78,17.88l-.26.1a12.85,12.85,0,0,1,.4-1.34l.44-.09C78.16,17,78,17.43,77.78,17.88Z" transform="translate(-10.82 -2.77)"/><path class="cls-1" d="M110.58,47.65l3,1.31,1.47,1.2a9,9,0,0,0-1,.77l-.1,0q-2-1.66-3.84-3.43Z" transform="translate(-10.82 -2.77)"/><path class="cls-1" d="M12.54,136a5,5,0,0,0,4.24,1,7.31,7.31,0,0,0,3.74-2.19,18.63,18.63,0,0,0,2.68-3.7l1.16-2,1.1-2.08a89.57,89.57,0,0,0,6.44-17.6c1.62-6.07,2.88-12.26,4-18.51S38,78.33,39.36,72.08c1.1-5.09,2.3-10.14,3.73-15.15l.87.25a102.87,102.87,0,0,0-3,15.18c-.8,6.3-1.42,12.63-2.32,19A143.54,143.54,0,0,1,35,110.24a74.48,74.48,0,0,1-7.48,17.9l-1.28,2.07-1.4,2a19.88,19.88,0,0,1-3.29,3.73,8,8,0,0,1-4.65,2A5.61,5.61,0,0,1,13,136.88c-.14-.27-.31-.55-.44-.83Z" transform="translate(-10.82 -2.77)"/><path class="cls-1" d="M160.65,179a20.31,20.31,0,0,0,2.21-.11,22.67,22.67,0,0,1,1.79,3.18,21.25,21.25,0,0,1,1.91,11.6A23.63,23.63,0,0,0,160.65,179Z" transform="translate(-10.82 -2.77)"/><path class="cls-1" d="M116.86,141.9a56.86,56.86,0,0,1,1.09-7.7l.61-.21a68.23,68.23,0,0,0-.23,7.95c0,1.92.15,3.85.37,5.75a49.8,49.8,0,0,0,.88,5.64,28.51,28.51,0,0,0,1.76,5.26,15.4,15.4,0,0,0,3,4.38,15.11,15.11,0,0,0,2.55,1.95,23.87,23.87,0,0,1-1,2.75,15.28,15.28,0,0,1-3.54-2.71,21.12,21.12,0,0,1-5.09-11.18A52.63,52.63,0,0,1,116.86,141.9Z" transform="translate(-10.82 -2.77)"/><path class="cls-1" d="M87,107.89l.1-.17c1.34.32,2.6.7,3.86,1s2.52.59,3.78,1a21.53,21.53,0,0,0,3.85,1,13,13,0,0,0,4-.21c1.3-.27,2.59-.55,3.88-.79s2.58-.57,3.87-.82a64.51,64.51,0,0,1,8-1.06l.06.19a29.48,29.48,0,0,1-7.58,3,27.53,27.53,0,0,1-4,.6,20.91,20.91,0,0,1-4.11,0c-1.37-.12-2.71-.22-4.06-.23s-2.75.13-4.13,0a13.24,13.24,0,0,1-4-1.14A11.43,11.43,0,0,1,87,107.89Z" transform="translate(-10.82 -2.77)"/><path class="cls-1" d="M114.09,51l0,0,1.21.35a3.84,3.84,0,0,0-.53.28C114.56,51.37,114.33,51.17,114.09,51Z" transform="translate(-10.82 -2.77)"/><path class="cls-1" d="M151.14,78.21a11,11,0,0,1,2-1.65c0,.22,0,.44,0,.66A10.84,10.84,0,0,0,151,78.91c0-.12,0-.24,0-.36A2,2,0,0,1,151.14,78.21Z" transform="translate(-10.82 -2.77)"/><path class="cls-1" d="M138.15,170.66c-.29-1-.56-2-.82-3,2.71.26,5.5.38,8.31.76a30.07,30.07,0,0,1,6,1.41A21.17,21.17,0,0,1,157,172.7a23.59,23.59,0,0,1,4.4,4.18c-1,0-1.95,0-2.93-.11a21.09,21.09,0,0,0-7.75-4.5,27.65,27.65,0,0,0-5.46-1.08C143,170.92,140.58,170.83,138.15,170.66Z" transform="translate(-10.82 -2.77)"/><path class="cls-1" d="M163.24,178.81c-.13,0-.25,0-.38,0a21,21,0,0,0-1.44-2c.55,0,1.1,0,1.66,0a25.16,25.16,0,0,0,4.8-.7q.17.44.36.87l.48-1.1-.84.23a54.61,54.61,0,0,1-3.07-11c-.25-1.58-.43-3.17-.54-4.76.28.4.57.78.88,1.15.18,1.15.41,2.29.65,3.42a52.86,52.86,0,0,0,3.92,11.45l.38.8-.88.31A27.6,27.6,0,0,1,163.24,178.81Z" transform="translate(-10.82 -2.77)"/><path class="cls-1" d="M123.34,132.24q-2.37.91-4.78,1.75l.12-1.33c1.27-.72,2.54-1.45,3.77-2.22a72,72,0,0,0,9.1-5.27,40.28,40.28,0,0,0,7.75-6.92,35.7,35.7,0,0,0,5.48-8.77c.62-1.35,1.15-2.74,1.64-4.14a7.83,7.83,0,0,0,1.67,1.25c-.44,1.25-.94,2.49-1.49,3.71a38,38,0,0,1-5.79,9.25,42.16,42.16,0,0,1-8.13,7.26A72.55,72.55,0,0,1,123.34,132.24Z" transform="translate(-10.82 -2.77)"/><path class="cls-1" d="M29.2,156.81a31.9,31.9,0,0,0,2.93,2l.17.09a12.29,12.29,0,0,1-1.6.11h-.16a29.54,29.54,0,0,1-2.42-2.16C28.5,156.83,28.86,156.83,29.2,156.81Z" transform="translate(-10.82 -2.77)"/><path class="cls-1" d="M56.46,77.67l-.72.12a3.81,3.81,0,0,0-.32-.24,1,1,0,0,0-.2-.13c.26-.07.5-.14.72-.22A5.8,5.8,0,0,1,56.46,77.67Z" transform="translate(-10.82 -2.77)"/><path class="cls-1" d="M81.8,28.32l.4.5c0,.23,0,.47,0,.7a7.4,7.4,0,0,1-.42-.61A5.72,5.72,0,0,0,81.8,28.32Z" transform="translate(-10.82 -2.77)"/><path class="cls-1" d="M56.46,77.67a5.8,5.8,0,0,0-.52-.47A42.7,42.7,0,0,0,61.44,75a22.26,22.26,0,0,0,3.38-2,19.28,19.28,0,0,0,2.77-2.73c.85-1,1.65-2,2.43-3.13s1.46-2.21,2.18-3.35A69.91,69.91,0,0,0,76,56.66,63.5,63.5,0,0,0,78.62,50a12,12,0,0,1,1.36.16,67.18,67.18,0,0,1-2.43,7.17C75.42,62.4,72.9,67.42,69,71.5a19.1,19.1,0,0,1-3.24,2.78,19.61,19.61,0,0,1-3.8,1.85A31.89,31.89,0,0,1,56.46,77.67Z" transform="translate(-10.82 -2.77)"/><path class="cls-1" d="M82.32,166.26l.42-.31a17.82,17.82,0,0,0,.66,3.15l-.32.23-.18.1A21.3,21.3,0,0,1,82.32,166.26Z" transform="translate(-10.82 -2.77)"/><path class="cls-1" d="M146.92,103.85a7.37,7.37,0,0,0,1.7,1.17c-.16.53-.34,1-.53,1.57a7.83,7.83,0,0,1-1.67-1.25c.17-.5.34-1,.48-1.5Z" transform="translate(-10.82 -2.77)"/><path class="cls-1" d="M116.08,50.94a9.34,9.34,0,0,1,1.19-.43c1.59.69,3.17,1.4,4.75,2.15l-.07.19c-1.61-.3-3.21-.65-4.78-1.06C116.8,51.51,116.43,51.23,116.08,50.94Z" transform="translate(-10.82 -2.77)"/><path class="cls-1" d="M30.54,159h.16a12.29,12.29,0,0,0,1.6-.11,24,24,0,0,0,6.4,2.62,17,17,0,0,0,6.85.22,13.55,13.55,0,0,0,4.66-1.78l.73.28a9.78,9.78,0,0,1-.52,2.69,2,2,0,0,1-.12.31,18,18,0,0,1-4.42.95,19.09,19.09,0,0,1-7.68-.9,23.1,23.1,0,0,1-6.7-3.53C31.17,159.49,30.86,159.23,30.54,159Z" transform="translate(-10.82 -2.77)"/><path class="cls-1" d="M137.33,167.62c.26,1,.53,2,.82,3l-.73-.06c-.36-1-.7-2-1-3.07C136.7,167.57,137,167.6,137.33,167.62Z" transform="translate(-10.82 -2.77)"/><path class="cls-1" d="M85.05,68.68a7.36,7.36,0,0,1,1.71,4,10.35,10.35,0,0,0-1.28-1.92A16.58,16.58,0,0,0,85.05,68.68Z" transform="translate(-10.82 -2.77)"/><path class="cls-1" d="M58.52,104.49a5.85,5.85,0,0,1-1.65,1.14l-.07,0c-.16-.45-.3-.9-.43-1.35a5.1,5.1,0,0,0,1.77-1c.12.41.24.82.38,1.22Z" transform="translate(-10.82 -2.77)"/><path class="cls-1" d="M96.26,97.09a9.41,9.41,0,0,1,3.83-.78,27.38,27.38,0,0,1,3.77.22c1.22.13,2.41.29,3.6.36a20.85,20.85,0,0,0,3.69-.06,6.91,6.91,0,0,1-3.59,1.62,13.58,13.58,0,0,1-3.92.06c-1.26-.14-2.49-.4-3.7-.65Z" transform="translate(-10.82 -2.77)"/><path class="cls-1" d="M114,50.9l.1,0,0,0Z" transform="translate(-10.82 -2.77)"/><path class="cls-1" d="M77.26,77.85a15.3,15.3,0,0,1-.74-4.77,23,23,0,0,1,.62-5.34h0a8.28,8.28,0,0,1,5.45.77,9.19,9.19,0,0,1,1.32.84,22.64,22.64,0,0,1-.42,5.71,25.87,25.87,0,0,1-1.36,4.55,4.71,4.71,0,0,1-1.06,1.75,1.21,1.21,0,0,1-1.43.14C78.55,80.9,77.78,79.33,77.26,77.85Z" transform="translate(-10.82 -2.77)"/><path class="cls-1" d="M75.7,50.18a16.17,16.17,0,0,0-6.77,2.51,16.41,16.41,0,0,0-5,5.22,10.77,10.77,0,0,1,3.86-6.46,14.64,14.64,0,0,1,11.42-3.32c-.19.65-.42,1.29-.66,1.94A14.73,14.73,0,0,0,75.7,50.18Z" transform="translate(-10.82 -2.77)"/><path class="cls-1" d="M80.46,48.38a12.05,12.05,0,0,1,2.62,1,10.66,10.66,0,0,1,4.9,5,14.88,14.88,0,0,0-5.54-3.61A13.9,13.9,0,0,0,80,50.15Q80.25,49.27,80.46,48.38Z" transform="translate(-10.82 -2.77)"/><path class="cls-1" d="M78.36,16.55l-.44.09a17,17,0,0,1,1.67-3.49,21.19,21.19,0,0,1,5.07-5.41,24.8,24.8,0,0,1,6.64-3.5,29.77,29.77,0,0,1,7.42-1.41,30.39,30.39,0,0,1,7.5.42,62,62,0,0,1,7.22,1.84c2.37.71,4.64,1.69,6.92,2.62l1.7.7c.57.24,1.11.54,1.66.81L127,10.86c1.11.52,2.13,1.21,3.2,1.82l3.18,1.88,3,2.1c1,.72,2.06,1.36,3,2.16l2.87,2.31c.49.39,1,.76,1.43,1.16l1.36,1.25,2.71,2.5c.91.83,1.71,1.76,2.57,2.64a94.25,94.25,0,0,1,16.73,24.13A90.06,90.06,0,0,1,175.35,81c1.19,9.8.55,19.59.09,29.23s-.82,19.26.67,28.65a62.23,62.23,0,0,0,3.7,13.64,41.07,41.07,0,0,0,6.48,11l-.48.41-2.84.26a45.58,45.58,0,0,1-5.93-10.5,64.16,64.16,0,0,1-3.89-14.31c-1.55-9.76-1.18-19.62-.7-29.27s1.08-19.29-.09-28.74a86.91,86.91,0,0,0-7.94-27.24,92,92,0,0,0-16.2-23.37c-.84-.85-1.62-1.76-2.5-2.56l-2.63-2.42-1.31-1.21c-.45-.39-.92-.75-1.38-1.12l-2.78-2.24c-.9-.77-1.92-1.38-2.9-2.08l-2.92-2-3.06-1.82c-1-.59-2-1.26-3.12-1.75l-3.18-1.6c-.54-.25-1.06-.54-1.61-.77l-1.63-.68C117,9.58,114.8,8.63,112.55,8A53.67,53.67,0,0,0,98.76,5.49a27.57,27.57,0,0,0-6.89.7,23.18,23.18,0,0,0-6.41,2.72,20.58,20.58,0,0,0-5.26,4.68A17.25,17.25,0,0,0,78.36,16.55Z" transform="translate(-10.82 -2.77)"/><path class="cls-1" d="M79.18,48.13a10.73,10.73,0,0,1,1.28.25q-.21.88-.48,1.77A12,12,0,0,0,78.62,50C78.82,49.37,79,48.75,79.18,48.13Z" transform="translate(-10.82 -2.77)"/><path class="cls-1" d="M133.06,170.09q-.1-1.53-.12-3.06l.9.15c0,1-.07,2,0,3l-.2,0Z" transform="translate(-10.82 -2.77)"/><path class="cls-1" d="M79.18,48.13a58.06,58.06,0,0,0,1.62-6.87,63.76,63.76,0,0,0,1-12.35,7.4,7.4,0,0,0,.42.61,62.35,62.35,0,0,1-.44,11.9,57.34,57.34,0,0,1-1.34,7A10.73,10.73,0,0,0,79.18,48.13Z" transform="translate(-10.82 -2.77)"/></svg>