<?xml version="1.0" encoding="utf-8"?>
<!-- Generator: Adobe Illustrator 24.0.2, SVG Export Plug-In . SVG Version: 6.00 Build 0)  -->
<svg version="1.1" id="Layer_1_xA0_Image_1_" xmlns="http://www.w3.org/2000/svg" xmlns:xlink="http://www.w3.org/1999/xlink"
	 x="0px" y="0px" viewBox="0 0 123.3 188.7" style="enable-background:new 0 0 123.3 188.7;" xml:space="preserve">
<style type="text/css">
	.st0{fill:#FFFFFF;}
</style>
<g>
	<g>
		<path class="st0" d="M126.4,188.7c-41.1,0-82.2,0-123.3,0c0-62.9,0-125.8,0-188.7c41.1,0,82.1,0,123.3,0
			C126.4,62.9,126.4,125.8,126.4,188.7z M49.2,120.4c0.4-0.1,0.9-0.3,1.3-0.4c1.2-10.3,2.3-20.5,3.5-30.8c3.6,0.3,4.4-0.2,4.5-3.7
			c0.1-4.1,0-8.1-0.3-12.2c-0.2-2.5-0.8-4.6,2.6-5.7c1.5-0.5,2.6-2.4,3.7-3.8c0.7-1,1.1-2.2,1.8-3.8c1.3,2.1,2.7,3.7,3.5,5.6
			c3.4,7.6,7.5,15,9.9,22.9c7.8,25.6,13.1,51.8,12.7,78.8c-0.1,4,0.2,8,0.5,11.9c0.4,4.7,2.8,7.5,7.5,8.4c1.5,0.3,3.1,0.3,4.6,0.4
			c5.6,0.2,8.4-3.2,7.5-8.8c-0.4-2.4-0.6-4.9-0.8-7.3c-0.9-10.3-1.1-20.7-2.9-30.8c-5.3-29.6-13.8-58-34-81.6
			c-0.4-0.5-0.6-1.5-0.4-2.1c0.4-1.4,1.2-2.8,2.1-4.8c4.2,4.1,8.4,7.9,12.3,12c2.8,3,2.7,3.2,6.3,0.8c5.9,14.3,19,22,29.6,32.3
			c-0.2-4.9-0.6-9.6-1.8-14c-3-11.1-8.8-20.9-16.5-29.4c-8.1-8.9-18-13.9-30.3-13.5c-1.6,0.1-3.2,0-4.8,0c-0.1-0.2-0.2-0.5-0.3-0.7
			c1.4-1.4,2.7-2.8,4.1-4.1c6.7-6.4,15.5-9,23.6-12.7c4.1-1.9,4.2-1.7,2.2-5.9c0.9-0.3,1.7-0.5,2.6-0.7c4.1-1.1,8.2-2.1,12.3-3.3
			c1.9-0.5,1.9-1.7,0.6-3c-1.7-1.5-3.3-3.2-5.1-4.5c-4.1-2.9-8.7-4.7-13.8-4c-8,1.1-15.2,4.2-21,10.1C69.1,19.1,64,27.4,61.7,37.3
			c-0.2,1-0.6,2-0.9,3c-0.2,0-0.5,0.1-0.7,0.1c-0.5-0.9-1-1.7-1.4-2.6C54.7,30,51,22,46.8,14.3C43.2,7.7,36.6,4.4,30,1.6
			c-2-0.8-4-0.5-5.5,1.2c-1.5,1.7-0.2,3.3,0.7,4.7c1.7,2.5,3.6,4.9,5.5,7.5c-0.6,0.3-1.1,0.6-1.7,0.9c-3.4,1.5-3.8,2.8-1.1,5.3
			c2.3,2.2,4.8,4.1,7.3,6.1c5.3,4.3,10.7,8.5,16,12.8c-0.1,0.1-0.2,0.2-0.3,0.1c-0.7-0.3-1.5-0.6-2.2-1c-5.9-2.9-12.3-3.4-18.3-1.2
			c-6.4,2.4-12.3,6.3-16,12.3c-8.1,13-13,26.9-9.5,42.6c1.4,6.3,4.3,11.6,9.2,16c5.6-13,10-25.9,10.2-40.5c3,2.1,4.4,0.7,5.6-1.3
			c1.5-2.6,3-5.2,4.6-7.7c2.8-4.6,7.2-7.3,11.8-9.6c1.1,1.5,2.1,2.9,3.2,4.4c-0.1,0.2-0.3,0.6-0.5,0.8c-6.4,7.7-10.7,16.3-11.6,26.5
			c-1,12,0.6,23.5,7.2,33.9C45.9,117.2,47.7,118.7,49.2,120.4z"/>
		<path d="M49.2,120.4c-1.5-1.7-3.3-3.2-4.6-5.1c-6.6-10.4-8.3-21.9-7.2-33.9C38.3,71.3,42.6,62.7,49,55c0.2-0.3,0.4-0.6,0.5-0.8
			c-1.1-1.5-2-2.8-3.2-4.4c-4.6,2.3-9,5-11.8,9.6c-1.6,2.5-3.1,5.1-4.6,7.7c-1.2,2-2.6,3.4-5.6,1.3C24.2,83,19.8,96,14.1,108.9
			c-4.9-4.4-7.8-9.7-9.2-16c-3.5-15.7,1.4-29.6,9.5-42.6c3.7-5.9,9.6-9.9,16-12.3c6-2.2,12.4-1.8,18.3,1.2c0.7,0.4,1.5,0.7,2.2,1
			c0,0,0.1-0.1,0.3-0.1c-5.4-4.3-10.7-8.5-16-12.8c-2.5-2-5-3.9-7.3-6.1c-2.6-2.5-2.3-3.9,1.1-5.3c0.6-0.2,1.1-0.6,1.7-0.9
			c-1.9-2.6-3.8-5-5.5-7.5c-0.9-1.4-2.2-3-0.7-4.7c1.5-1.7,3.5-2,5.5-1.2c6.7,2.8,13.2,6.1,16.9,12.7C51,22,54.7,30,58.6,37.8
			c0.4,0.9,0.9,1.7,1.4,2.6c0.2,0,0.5-0.1,0.7-0.1c0.3-1,0.7-2,0.9-3C64,27.4,69.1,19.1,76.3,12c5.8-5.9,13-8.9,21-10.1
			c5.1-0.7,9.7,1.1,13.8,4c1.8,1.3,3.4,3,5.1,4.5c1.4,1.3,1.3,2.5-0.6,3c-4.1,1.2-8.2,2.2-12.3,3.3c-0.9,0.2-1.7,0.5-2.6,0.7
			c2,4.2,1.9,4.1-2.2,5.9c-8.2,3.7-16.9,6.4-23.6,12.7c-1.4,1.3-2.8,2.7-4.1,4.1c0.1,0.2,0.2,0.5,0.3,0.7c1.6,0,3.2,0,4.8,0
			c12.3-0.4,22.3,4.6,30.3,13.5c7.7,8.5,13.5,18.3,16.5,29.4c1.2,4.5,1.6,9.2,1.8,14C114,87.5,100.9,79.8,95,65.5
			c-3.6,2.4-3.5,2.2-6.3-0.8c-3.9-4.1-8.1-7.9-12.3-12c-0.9,2-1.6,3.4-2.1,4.8c-0.2,0.6,0,1.6,0.4,2.1c20.2,23.5,28.7,51.9,34,81.6
			c1.8,10.1,1.9,20.5,2.9,30.8c0.2,2.4,0.4,4.9,0.8,7.3c0.9,5.6-1.9,9-7.5,8.8c-1.5-0.1-3.1-0.1-4.6-0.4c-4.6-0.9-7.1-3.7-7.5-8.4
			c-0.3-4-0.6-8-0.5-11.9c0.4-27-4.8-53.1-12.7-78.8c-2.4-7.9-6.5-15.3-9.9-22.9c-0.8-1.9-2.2-3.5-3.5-5.6c-0.7,1.6-1.1,2.8-1.8,3.8
			c-1.1,1.4-2.2,3.4-3.7,3.8c-3.4,1.1-2.8,3.2-2.6,5.7c0.3,4.1,0.4,8.1,0.3,12.2c-0.1,3.5-0.9,4-4.5,3.7
			c-1.2,10.3-2.3,20.5-3.5,30.8C50.1,120.1,49.6,120.3,49.2,120.4z"/>
	</g>
</g>
</svg>
