<svg xmlns="http://www.w3.org/2000/svg" width="116.964" height="26.114" viewBox="0 0 116.964 26.114">
  <g id="icon-seribune" transform="translate(0)">
    <path id="Path_7" data-name="Path 7" d="M97.19,26.1H0V0H116.955V14.709c-.456.041-.911.087-1.37.125-.927.071-1.856.125-2.781.209-1.056.1-2.108.249-3.166.326-.974.077-1.952.1-2.929.142-.686.029-1.37.039-2.058.071-.762.036-1.524.095-2.285.125-1.09.052-2.179.112-3.269.133-1.858.039-3.714.046-5.572.074-1,.015-2.006.059-3.01.064-2.071.01-4.141,0-6.212.006-.279,0-.558.06-.836.054-.65-.015-1.3-.054-1.95-.082l-.046.1a.9.9,0,0,0,.188.2c1.993,1.1,4,2.211,6.008,3.3,1.775.959,3.564,1.895,5.357,2.831a1.2,1.2,0,0,0,.51.113c.815.027,1.631.022,2.444.06a12.455,12.455,0,0,0,1.4.133,9.283,9.283,0,0,0,1.522-.323c.863-.208,1.718-.456,2.586-.632a9.575,9.575,0,0,1,3.689-.191,2.8,2.8,0,0,0,1.073-.039c.8-.172,1.595-.389,2.387-.606a6.45,6.45,0,0,1,2.691-.264,4.056,4.056,0,0,0,1.524-.233.153.153,0,0,0,.1-.066,6.35,6.35,0,0,0,.341-.822,11.494,11.494,0,0,0,.5-2.885.575.575,0,0,1,.33-.406c.49-.174,1.012-.259,1.5-.435s1.09-.143,1.334-.748V26.089H98.005l.323-.125a1.161,1.161,0,0,0-.209-.234c-.663-.415-1.326-.832-2-1.228-1.423-.837-2.839-1.687-4.285-2.484-1.581-.872-3.2-1.673-4.788-2.529-1.825-.984-3.627-2.01-5.454-2.99q-2.58-1.379-5.2-2.694a47.291,47.291,0,0,0-5.606-2.243c-1.322-.462-2.664-.872-3.978-1.348-1.818-.66-3.613-1.37-5.428-2.047-.914-.345-1.84-.662-2.753-1.013C57.405,6.7,56.19,6.2,54.969,5.731c-1.152-.437-2.32-.835-3.476-1.266-.759-.283-1.51-.588-2.258-.9-.06-.026-.093-.206-.078-.305a4.04,4.04,0,0,0-.017-1.921c-.15-.441-.36-.6-.762-.6s-.562.125-.71.612a2.916,2.916,0,0,0,.1,1.645.422.422,0,0,1-.341.6,3.862,3.862,0,0,1-.686.125c-.331.029-.458.285-.534.527a.51.51,0,0,0,.176.455c.578.33.533.835.42,1.352-.147.672-.4,1.327-.477,2a4.263,4.263,0,0,0,1.283,3.526,1.534,1.534,0,0,1,.477,1.777,3.3,3.3,0,0,0-.192.7c-.125.632.047,1.015.795,1H49c.082-.351.157-.664.227-.977a6.548,6.548,0,0,0,.3-2.8c-.021-.106.059-.232.09-.344a.623.623,0,0,1,.432.655,1.858,1.858,0,0,0,.157.711c.453.872.923,1.724,1.43,2.559.07.115.387.125.579.1.09-.012.208-.223.214-.349a2.6,2.6,0,0,0-.088-.659c-.145-.67-.325-1.336-.44-2.011a14.213,14.213,0,0,0-1.379-4.293A6.3,6.3,0,0,1,50.2,6.578c-.125-.39.041-.872-.374-1.176-.017-.012.031-.115.054-.188a3.057,3.057,0,0,0,.5.344c1.393.559,2.781,1.131,4.189,1.646a34.291,34.291,0,0,0,3.684,1.039A34.224,34.224,0,0,1,62.045,9.5c1.314.482,2.608,1.022,3.91,1.537,1.446.573,2.9,1.142,4.338,1.724a5.609,5.609,0,0,1,1.744.956,8.173,8.173,0,0,0,1.286,1.014q2.866,1.65,5.768,3.231c.987.541,2.007,1.02,3.006,1.537,1.37.708,2.725,1.437,4.1,2.134,1.134.578,2.264,1.17,3.432,1.674,1.13.487,2.3.872,3.462,1.3C94.461,25.108,95.826,25.6,97.19,26.1ZM91.21,24.2c-.719-.29-1.362-.512-1.97-.806-1.5-.721-2.98-1.479-4.47-2.218-.374-.188-.772-.348-1.147-.544-1.343-.706-2.679-1.424-4.019-2.134-1.271-.672-2.54-1.346-3.817-2a2.585,2.585,0,0,0-.949-.358c-1.023-.065-2.051-.064-3.077-.082-1.319-.025-2.64-.042-3.961-.071-.584-.012-1.17-.036-1.753-.066-1.189-.064-2.376-.145-3.564-.2-1.236-.059-2.473-.1-3.71-.138-.9-.029-1.8-.044-2.7-.069-.7-.02-1.4-.052-2.093-.066-1.343-.027-2.686-.036-4.029-.075-.587-.017-1.165.036-1.763-.035-1.324-.157-2.666-.166-4-.23-1.044-.05-2.089-.091-3.133-.136-1.068-.046-2.135-.086-3.2-.137-.748-.037-1.5-.091-2.251-.132q-1.9-.106-3.8-.2c-.6-.03-1.192-.045-1.788-.071q-.639-.026-1.278-.069c-1.286-.087-2.57-.179-3.856-.268-.374-.026-.74-.046-1.109-.07l-4.1-.269c-.414-.027-.829-.044-1.246-.071-.325-.02-.649-.042-.973-.074-.855-.085-1.709-.182-2.567-.26-.623-.059-1.246-.088-1.876-.143-.936-.082-1.869-.168-2.8-.269-.677-.071-1.349-.169-2.023-.249a6.451,6.451,0,0,0-1.228-.125.722.722,0,0,1-.606-.168c-.574-.517-1.185-1-1.734-1.537-.485-.478-.906-1.02-1.353-1.536-.233-.27-.468-.539-.69-.82A3.079,3.079,0,0,0,.855,7.226C.566,7.153.305,7.163.172,7.4a.771.771,0,0,0,0,.607A14.771,14.771,0,0,0,2.4,11.122q1.1,1.334,2.272,2.606c.855.922,1.726,1.831,2.638,2.7,1.024.972,2.092,1.9,3.161,2.822.735.634,1.475,1.271,2.265,1.833,1.359.966,2.741,1.893,4.15,2.793a3.205,3.205,0,0,0,1.435.581,15.094,15.094,0,0,0,2.33-.2,5.019,5.019,0,0,1,1.141-.09,6.658,6.658,0,0,1,1.333.392,3.65,3.65,0,0,0,1.889.47c.591-.1,1.17-.268,1.76-.366a7.7,7.7,0,0,1,1.819-.2,15.48,15.48,0,0,1,2.04.476,4.947,4.947,0,0,0,1.311.212,7.476,7.476,0,0,0,1.5-.326,5.646,5.646,0,0,1,3.364-.141,2.367,2.367,0,0,0,.764.078c.483,0,.966-.051,1.449-.06.61-.011,1.222-.02,1.833,0,.48.017.959.069,1.435.132.539.074,1.071.2,1.612.263.623.071,1.253.074,1.876.146,1.04.125,2.082.249,3.115.415a7.936,7.936,0,0,0,3.29-.125,15.014,15.014,0,0,1,3.151-.556c.748-.03,1.509.02,2.263.064.41.024.816.113,1.225.163a27.391,27.391,0,0,0,3.09.349c1.3.007,2.594-.141,3.89-.249A13.1,13.1,0,0,0,67.882,25a14.151,14.151,0,0,1,4.381-.518,3.118,3.118,0,0,1,1.612.485,1.287,1.287,0,0,0,.878.265c.534-.056,1.07-.1,1.6-.137a5.733,5.733,0,0,1,2.172.354,6.552,6.552,0,0,0,2.067.184,16.954,16.954,0,0,1,2.18.026,7.475,7.475,0,0,0,2.508.036c1.9-.4,3.792-.848,5.686-1.286.076-.025.141-.116.244-.209Zm-.421-13.032c-.637-.226-1.246-.488-1.89-.662-2.249-.609-4.506-1.189-6.76-1.777-1.139-.3-2.279-.586-3.415-.89a.48.48,0,0,1-.264-.218c-.311-.589-.592-1.194-.909-1.778a.664.664,0,0,1,.168-.9.854.854,0,0,0,.311-.508,1.114,1.114,0,0,0-1.539-1.164c-.249.066-.571.176-.673.365a1.562,1.562,0,0,1-.848.756,3.655,3.655,0,0,0-.563.282,3.706,3.706,0,0,0-1.884,2.762,23.986,23.986,0,0,0-.189,2.6,8.039,8.039,0,0,0,.257,1.432.532.532,0,0,1,.026.249c-.064.2.031.237.2.3,1.236.5,2.464,1.023,3.7,1.531a3.453,3.453,0,0,0,.512.11c-.333-.756-.6-1.423-.916-2.071A2.2,2.2,0,0,1,76,9.8c.142-.385.285-.77.409-1.161s.249-.487.623-.416c.47.091.939.173,1.408.263,1.146.221,2.3.414,3.434.672,1.157.263,2.29.643,3.452.872a50.056,50.056,0,0,1,5.087,1.445c.379.126.42.1.382-.3Zm-1.744,4.506c1.684-.051,3.34.077,5.008-.088.191-1.088.4-2.153.558-3.227a7.686,7.686,0,0,0-.284-3.639,7.511,7.511,0,0,1-.741-3.488,1.092,1.092,0,0,0-.132-.475,1.112,1.112,0,0,0-1.085-.623c-.349.014-.51.178-.658.683a.815.815,0,0,0-.036.262c.015.268.031.536.065.8.07.541-.324.8-.654,1.1a1.366,1.366,0,0,0-.537,1.192c.107.662.392,1.292.532,1.95a2.262,2.262,0,0,1,0,1.171,9.964,9.964,0,0,1-.82,1.547c-.315.557-.642,1.108-.968,1.657a1.78,1.78,0,0,0-.242,1.184ZM74.219,15.8c.019-.036.039-.071.057-.106-.115-.09-.227-.183-.344-.268-.5-.366-1.03-.705-1.51-1.1a1.887,1.887,0,0,0-1.216-.515c-.833-.012-1.666-.055-2.5-.062-1.181-.011-2.367,0-3.545,0-.314,0-.623-.041-.943-.061h-.237c-.5,0-1-.017-1.5,0a13.6,13.6,0,0,1-1.672.014c-1.37-.1-2.741-.11-4.111-.153-.754-.025-1.508-.046-2.261-.069l-.169-.007-1.716-.087.216,1.719c.213.027.455.076.7.087.708.032,1.417.05,2.125.071.834.024,1.667.042,2.5.069,1.362.044,2.722.083,4.083.137.841.034,1.681.092,2.522.132,1.02.05,2.042.113,3.064.132,2.032.039,4.065.051,6.1.072.113,0,.235,0,.358,0Zm-26.43-2.623c-.638.032-1.277.071-1.915.095-.811.03-1.62.051-2.432.069-1.287.026-2.573.059-3.862.065-.709,0-1.418-.055-2.127-.061-2.971-.029-5.943-.057-8.916-.067a50.667,50.667,0,0,1-5.8-.207c-.623-.071-1.24-.152-1.86-.226-1.073-.125-2.144-.29-3.222-.374-.923-.072-1.853-.07-2.78-.075-1.8-.01-3.6,0-5.4,0a.719.719,0,0,0-.249.1.928.928,0,0,0,.264.116c.4.035.806.045,1.209.078.981.085,1.96.179,2.939.264.6.052,1.207.087,1.809.142,1.18.107,2.357.23,3.538.33.736.062,1.476.091,2.215.138q1.561.1,3.121.2c.951.065,1.9.14,2.849.2,1.165.074,2.33.137,3.488.206.739.044,1.478.092,2.216.135q1.848.1,3.7.2c.784.044,1.567.1,2.352.132,1.271.054,2.542.095,3.812.138.748.026,1.485.042,2.228.071.449.016.9.047,1.346.074l1.175.076C47.6,14.378,47.688,13.818,47.788,13.178ZM66.843,9.95c-.012-.172-.012-.28-.029-.386-.1-.657-.208-1.313-.311-1.97s-.178-1.321-.311-1.973A13.2,13.2,0,0,0,65.04,2.684a4.415,4.415,0,0,1-.234-.958c-.067-.323-.112-.675-.191-1.008a.8.8,0,0,0-.748-.657A.956.956,0,0,0,62.88.6,1.783,1.783,0,0,0,62.8,1.907a1.09,1.09,0,0,1-.44,1.282c-.374.274-.769.53-1.154.795a5.691,5.691,0,0,1-2.849,1.106A6.679,6.679,0,0,0,57,5.421c-.125.036-.221.163-.33.249l.069.116c.138-.022.278-.041.416-.07A8.05,8.05,0,0,1,58.2,5.511a10.439,10.439,0,0,0,3.2-.584c.305-.125.461-.037.527.292a3.965,3.965,0,0,1,.125.922A7.065,7.065,0,0,0,62.281,8.1c.019.078.135.158.223.193q1.63.639,3.263,1.262C66.106,9.678,66.447,9.8,66.843,9.95Zm15.932,5.783c-.067-.345-.11-.638-.183-.923s-.188-.568-.268-.856c-.086-.309-.163-.623-.224-.936-.034-.177.016-.323.249-.334.279-.014.558-.035.835-.074a.359.359,0,0,0,.23-.148.948.948,0,0,0-.473-1.347,11.651,11.651,0,0,0-1.351-.344c-.429-.083-.795-.218-.927-.683-.064-.224-.1-.457-.178-.675-.045-.125-.133-.3-.238-.326A5.684,5.684,0,0,0,79.2,8.879a.593.593,0,0,0-.409.158,1.116,1.116,0,0,0,.054,1.579c.314.331.3.471-.108.68a1.2,1.2,0,0,0-.638.767c-.135.467-.277.933-.4,1.4-.125.49-.014.693.434.928.532.279,1.054.581,1.587.86a3.066,3.066,0,0,0,1,.456A19.749,19.749,0,0,0,82.775,15.733ZM61.346,13.366c.588,0,1.1-.011,1.6,0a.4.4,0,0,0,.432-.28,7.428,7.428,0,0,1,.455-.893,1.685,1.685,0,0,1,.35-.315c.107.141.273.268.31.425a4.234,4.234,0,0,1,.078.863c0,.186.077.267.264.264H66.37a3.228,3.228,0,0,1,.071-.708c.1-.316-.156-.795.476-.931a1.919,1.919,0,0,0-.29-.2c-.3-.125-.6-.234-.9-.351-1.044-.409-2.091-.809-3.13-1.231-.269-.108-.365-.015-.431.224-.162.587-.343,1.169-.5,1.757-.121.437-.2.881-.318,1.378Zm42.5,1.286c-.115-.435-8.119-4.028-8.806-3.987-.078.466,0,.559.538.79a19.068,19.068,0,0,1,1.824.821A17.991,17.991,0,0,1,100.172,14a3.024,3.024,0,0,0,2.29.665C102.919,14.63,103.379,14.652,103.848,14.652Zm-9.535.978c.689-.035,1.327-.081,1.966-.095,1.5-.031,3-.036,4.5-.074,1.055-.026,2.118-.087,3.167-.133.5-.021.988-.04,1.481-.072.065,0,.125-.08.188-.125a.568.568,0,0,0-.184-.092c-.5-.03-1.009-.052-1.515-.072-1.2-.046-2.406-.088-3.613-.136-1.078-.042-2.157-.095-3.239-.132-.209,0-.421.057-.632.06-.647.007-1.292,0-1.946,0C94.438,15.04,94.381,15.287,94.314,15.63Zm-8.028-1.156v1.165h2.481c.032-.392.061-.748.093-1.165Zm-1.044,1.262c-.08-.449-.141-.838-.222-1.226-.044-.2-.2-.226-.394-.217-.34.015-.683,0-1.024,0h-.872c.145.476.265.895.4,1.308a.249.249,0,0,0,.186.125c.6.014,1.2.01,1.916.01Zm.738-.014c.275-1.895-1.162-3.841-2.145-3.776-.031.135-.064.273-.095.4,1.3.76,1.557,2.066,1.789,3.371Zm-34.59-.572a1.942,1.942,0,0,0-.1-.356,12.3,12.3,0,0,1-.623-1.1c-.2-.454-.566-.273-.862-.26-.1,0-.237.269-.285.436-.107.374-.171.761-.259,1.177Zm36.04-7.612a.734.734,0,0,0,.748.951c.4.032.794.1,1.19.167.311.05.623.125.932.179.081-.6.009-.718-.5-.872a3.385,3.385,0,0,0-.451-.125C88.718,7.737,88.084,7.64,87.429,7.538Zm7.449,5.488-.111.072c.019.192-.03.5.067.558.586.331,1.1.86,1.88.735a3.724,3.724,0,0,1,.872.067c.016-.051.031-.1.046-.154a28.327,28.327,0,0,0-2.755-1.278Z" transform="translate(0)" fill="#fff"/>
    <path id="Path_8" data-name="Path 8" d="M689.466,118.443c-.249.6-.855.573-1.334.748s-1.012.26-1.5.435a.575.575,0,0,0-.33.406,11.839,11.839,0,0,1-.5,2.885,6.336,6.336,0,0,1-.341.822.153.153,0,0,1-.1.066,4.044,4.044,0,0,1-1.524.233,6.45,6.45,0,0,0-2.691.264c-.792.217-1.585.434-2.387.606a2.8,2.8,0,0,1-1.073.039,9.653,9.653,0,0,0-3.689.191c-.872.176-1.723.424-2.586.632a8.9,8.9,0,0,1-1.523.323,12.465,12.465,0,0,1-1.4-.133c-.814-.037-1.63-.032-2.444-.06a1.2,1.2,0,0,1-.51-.113c-1.788-.936-3.577-1.869-5.357-2.831-2.01-1.085-4.008-2.194-6.008-3.3a.9.9,0,0,1-.188-.2l.046-.1c.649.029,1.3.067,1.95.082.278.006.557-.054.836-.054q3.106,0,6.212-.006c1,0,2.007-.049,3.01-.064,1.857-.027,3.714-.035,5.571-.073,1.09-.021,2.179-.081,3.269-.133.761-.036,1.522-.095,2.285-.125.685-.032,1.37-.042,2.058-.071.977-.041,1.955-.065,2.929-.142,1.058-.082,2.109-.229,3.166-.326.924-.085,1.854-.138,2.781-.209.456-.036.911-.082,1.371-.125Z" transform="translate(-572.51 -103.395)"/>
    <path id="Path_9" data-name="Path 9" d="M421.822,31.2c-1.37-.5-2.73-.987-4.091-1.486-1.157-.425-2.332-.814-3.462-1.3-1.169-.5-2.3-1.1-3.432-1.674-1.37-.7-2.73-1.427-4.1-2.134-1-.517-2.02-1-3.006-1.537q-2.9-1.586-5.768-3.231a8.586,8.586,0,0,1-1.286-1.014,5.861,5.861,0,0,0-1.744-.956c-1.443-.582-2.892-1.151-4.338-1.724-1.3-.516-2.6-1.055-3.918-1.537a34.494,34.494,0,0,0-3.788-1.257,34.133,34.133,0,0,1-3.684-1.039c-1.408-.515-2.8-1.086-4.189-1.646a2.858,2.858,0,0,1-.5-.344c-.022.074-.071.176-.054.188.41.3.249.786.374,1.176a6.445,6.445,0,0,0,.324,1.076,14.227,14.227,0,0,1,1.379,4.293c.115.675.3,1.341.44,2.011a2.605,2.605,0,0,1,.088.659c-.006.125-.125.336-.214.349-.192.025-.51.014-.579-.1-.507-.835-.977-1.693-1.43-2.559a1.856,1.856,0,0,1-.155-.711.622.622,0,0,0-.432-.655c-.031.112-.111.238-.09.344a6.529,6.529,0,0,1-.3,2.8c-.07.313-.145.623-.227.977h-.314c-.748.015-.916-.374-.795-1a3.3,3.3,0,0,1,.192-.7,1.533,1.533,0,0,0-.477-1.777,4.261,4.261,0,0,1-1.283-3.526c.081-.677.33-1.332.477-2,.113-.517.158-1.022-.42-1.352a.51.51,0,0,1-.183-.463c.076-.242.2-.5.534-.527a3.863,3.863,0,0,0,.686-.125.422.422,0,0,0,.341-.6,2.916,2.916,0,0,1-.1-1.645c.148-.491.3-.61.71-.612s.613.161.762.6a4.04,4.04,0,0,1,.017,1.921c-.015.1.019.279.079.305.748.314,1.5.623,2.257.9,1.156.44,2.33.837,3.476,1.275,1.226.466,2.437.972,3.66,1.441.913.351,1.839.668,2.753,1.013,1.81.68,3.613,1.387,5.428,2.047,1.314.482,2.656.886,3.978,1.354a45.573,45.573,0,0,1,5.607,2.243q2.616,1.314,5.2,2.694c1.828.977,3.629,2,5.454,2.99,1.59.856,3.207,1.66,4.788,2.529,1.445.8,2.866,1.647,4.285,2.484.675.4,1.338.814,2,1.228a1.161,1.161,0,0,1,.209.234l-.323.125Z" transform="translate(-324.631 -5.104)"/>
    <path id="Path_10" data-name="Path 10" d="M91.986,74.644c-.1.087-.168.184-.249.2-1.894.437-3.784.888-5.686,1.286a7.474,7.474,0,0,1-2.508-.036,17.186,17.186,0,0,0-2.18-.026,6.62,6.62,0,0,1-2.067-.184,5.755,5.755,0,0,0-2.172-.354c-.534.041-1.07.081-1.6.137a1.287,1.287,0,0,1-.878-.265,3.111,3.111,0,0,0-1.612-.485,14.138,14.138,0,0,0-4.381.518,13.1,13.1,0,0,1-2.084.3c-1.3.111-2.594.259-3.89.249a26.833,26.833,0,0,1-3.09-.349c-.409-.05-.815-.14-1.225-.163-.754-.044-1.51-.093-2.263-.064a14.958,14.958,0,0,0-3.151.556,7.936,7.936,0,0,1-3.29.125c-1.033-.168-2.074-.3-3.115-.415-.623-.072-1.253-.075-1.876-.146-.541-.062-1.073-.189-1.612-.263-.476-.064-.956-.115-1.435-.132-.61-.022-1.222-.014-1.833,0-.483.009-.966.055-1.449.06a2.367,2.367,0,0,1-.764-.079,5.648,5.648,0,0,0-3.364.141,7.475,7.475,0,0,1-1.5.326,4.946,4.946,0,0,1-1.311-.212,15.481,15.481,0,0,0-2.04-.476,7.578,7.578,0,0,0-1.819.2c-.6.1-1.17.264-1.76.366a3.638,3.638,0,0,1-1.889-.47,6.657,6.657,0,0,0-1.333-.392,5,5,0,0,0-1.141.09,15.089,15.089,0,0,1-2.33.2,3.2,3.2,0,0,1-1.435-.581c-1.4-.9-2.791-1.828-4.15-2.793-.79-.562-1.53-1.2-2.265-1.833-1.063-.929-2.13-1.854-3.155-2.826C7.174,66,6.3,65.087,5.448,64.165Q4.273,62.9,3.176,61.559A14.708,14.708,0,0,1,.943,58.444a.771.771,0,0,1,0-.607c.133-.238.394-.249.683-.174a3.2,3.2,0,0,1,1.718,1.266c.222.28.457.549.69.82.447.516.872,1.058,1.353,1.536.549.542,1.16,1.02,1.734,1.537a.736.736,0,0,0,.606.168,7.648,7.648,0,0,1,1.228.125c.674.083,1.347.182,2.023.249.933.1,1.869.187,2.8.269.623.055,1.246.085,1.876.143.857.078,1.712.176,2.567.26.324.031.648.054.973.074.415.027.83.044,1.246.071q2.048.132,4.1.269c.374.024.739.044,1.109.07,1.286.088,2.57.181,3.856.268q.639.042,1.278.069c.6.026,1.192.041,1.788.071q1.9.1,3.8.2c.748.041,1.5.095,2.251.132,1.066.051,2.134.091,3.2.137,1.044.045,2.089.086,3.133.136,1.336.065,2.677.074,4,.23.6.071,1.176.017,1.763.035,1.343.039,2.686.047,4.029.075.7.014,1.4.046,2.093.066.9.025,1.8.04,2.7.069,1.237.041,2.474.08,3.71.138,1.189.055,2.376.136,3.564.2.583.03,1.169.054,1.753.066,1.321.029,2.641.046,3.961.071,1.027.019,2.054.017,3.077.082a2.61,2.61,0,0,1,.949.358c1.277.659,2.547,1.333,3.817,2,1.341.71,2.676,1.428,4.019,2.134.374.2.769.356,1.147.544,1.5.739,2.971,1.5,4.47,2.218C90.625,74.132,91.267,74.354,91.986,74.644Z" transform="translate(-0.771 -50.443)"/>
    <path id="Path_11" data-name="Path 11" d="M599.075,33.659c.037.4,0,.427-.388.306A50.048,50.048,0,0,0,593.6,32.52c-1.162-.234-2.295-.614-3.452-.872-1.136-.258-2.287-.451-3.434-.672-.468-.09-.938-.172-1.408-.263-.374-.071-.5.021-.623.416s-.267.776-.409,1.161a2.195,2.195,0,0,0,.117,1.785c.311.648.583,1.314.916,2.071a3.449,3.449,0,0,1-.512-.11c-1.233-.508-2.462-1.029-3.7-1.531-.164-.067-.259-.107-.2-.3a.531.531,0,0,0-.026-.249,7.724,7.724,0,0,1-.257-1.432,24,24,0,0,1,.189-2.6,3.713,3.713,0,0,1,1.884-2.762,3.653,3.653,0,0,1,.563-.282,1.562,1.562,0,0,0,.848-.756c.1-.189.427-.3.673-.365a1.113,1.113,0,0,1,1.539,1.164.858.858,0,0,1-.311.508.664.664,0,0,0-.168.9c.318.584.6,1.189.909,1.778a.48.48,0,0,0,.264.218c1.136.3,2.276.592,3.415.89,2.254.588,4.511,1.167,6.76,1.777C597.824,33.17,598.438,33.433,599.075,33.659Z" transform="translate(-508.281 -22.489)"/>
    <path id="Path_12" data-name="Path 12" d="M714.63,44.646a1.78,1.78,0,0,1,.249-1.195c.326-.549.653-1.1.968-1.657a10.537,10.537,0,0,0,.82-1.547,2.33,2.33,0,0,0,0-1.171c-.14-.658-.425-1.288-.532-1.95a1.36,1.36,0,0,1,.537-1.192c.33-.3.724-.554.654-1.1-.034-.264-.05-.532-.065-.8a.814.814,0,0,1,.036-.262c.148-.5.309-.669.658-.683a1.135,1.135,0,0,1,1.085.623,1.091,1.091,0,0,1,.132.475,7.59,7.59,0,0,0,.74,3.5,7.608,7.608,0,0,1,.284,3.639c-.153,1.074-.374,2.139-.558,3.227C717.971,44.723,716.315,44.6,714.63,44.646Z" transform="translate(-625.579 -28.97)"/>
    <path id="Path_13" data-name="Path 13" d="M443.46,109.85h-.365c-2.032-.021-4.065-.034-6.1-.072-1.022-.019-2.043-.082-3.064-.132-.841-.04-1.681-.1-2.522-.132-1.36-.054-2.721-.093-4.083-.137-.832-.026-1.666-.045-2.5-.069-.709-.021-1.418-.039-2.125-.071-.249-.011-.486-.06-.7-.087l-.216-1.719,1.716.087.169.007c.754.022,1.508.044,2.261.069,1.371.044,2.748.05,4.111.153a13.6,13.6,0,0,0,1.672-.014c.5-.022,1,0,1.5,0h.237c.315.02.623.06.943.061,1.181.007,2.367,0,3.545,0,.833.007,1.666.05,2.5.062a1.887,1.887,0,0,1,1.216.515c.48.4,1.005.735,1.51,1.1.117.085.229.178.344.268A.859.859,0,0,1,443.46,109.85Z" transform="translate(-369.24 -94.045)"/>
    <path id="Path_14" data-name="Path 14" d="M112.718,100.243c-.1.64-.188,1.2-.288,1.829L111.255,102c-.449-.026-.9-.057-1.346-.074-.748-.029-1.485-.045-2.228-.071-1.271-.044-2.542-.085-3.812-.138-.785-.032-1.569-.088-2.352-.132l-3.7-.2c-.739-.042-1.478-.091-2.216-.135-1.165-.069-2.33-.132-3.488-.206-.949-.061-1.9-.136-2.849-.2q-1.561-.107-3.121-.2c-.739-.047-1.479-.076-2.215-.138-1.181-.1-2.358-.223-3.538-.33-.6-.055-1.206-.09-1.809-.142-.979-.085-1.959-.179-2.939-.264-.4-.034-.806-.044-1.209-.078a.928.928,0,0,1-.264-.116.719.719,0,0,1,.249-.1c1.8-.006,3.6-.011,5.4,0,.927,0,1.856,0,2.78.075,1.078.083,2.149.249,3.222.374.623.074,1.24.155,1.86.226a52.106,52.106,0,0,0,5.8.207c2.973.01,5.944.039,8.916.067.709,0,1.418.064,2.127.061,1.286,0,2.572-.039,3.862-.065.81-.017,1.62-.039,2.432-.069C111.441,100.314,112.08,100.272,112.718,100.243Z" transform="translate(-64.929 -87.065)"/>
    <path id="Path_15" data-name="Path 15" d="M465.042,10.311c-.4-.148-.738-.272-1.076-.4q-1.633-.623-3.263-1.262c-.088-.035-.2-.115-.223-.193a7.066,7.066,0,0,1-.224-1.955,3.962,3.962,0,0,0-.125-.922c-.066-.329-.222-.411-.527-.292a10.439,10.439,0,0,1-3.2.584,8.049,8.049,0,0,0-1.044.206c-.138.029-.278.047-.416.07l-.068-.116c.11-.085.207-.212.33-.249a7.121,7.121,0,0,1,1.353-.33A5.673,5.673,0,0,0,459.4,4.345c.385-.265.776-.521,1.154-.795A1.088,1.088,0,0,0,461,2.268a1.783,1.783,0,0,1,.085-1.311.956.956,0,0,1,.988-.536.8.8,0,0,1,.748.657c.079.333.125.674.191,1.008a4.194,4.194,0,0,0,.234.958,13.194,13.194,0,0,1,1.151,2.937c.133.653.208,1.316.311,1.973s.209,1.313.311,1.97C465.029,10.031,465.029,10.139,465.042,10.311Z" transform="translate(-398.198 -0.362)"/>
    <path id="Path_16" data-name="Path 16" d="M628.352,78.123a19.97,19.97,0,0,1-2.063-.021,3.189,3.189,0,0,1-1-.456c-.533-.279-1.055-.581-1.587-.86-.447-.235-.559-.439-.434-.928.125-.471.264-.937.4-1.4a1.2,1.2,0,0,1,.647-.767c.409-.209.422-.349.108-.68a1.116,1.116,0,0,1-.054-1.579.593.593,0,0,1,.409-.158,5.681,5.681,0,0,1,1.043.208c.1.031.193.2.238.326.08.218.115.451.178.675.132.465.5.6.927.683a11.655,11.655,0,0,1,1.351.344.949.949,0,0,1,.473,1.347.358.358,0,0,1-.23.148c-.277.039-.556.06-.835.074-.229.011-.279.157-.249.334.061.314.138.623.224.936.08.288.193.567.268.856S628.285,77.778,628.352,78.123Z" transform="translate(-545.576 -62.39)"/>
    <path id="Path_17" data-name="Path 17" d="M492.42,83.344c.113-.5.2-.941.318-1.378.156-.588.336-1.17.5-1.757.066-.239.162-.333.431-.224,1.039.422,2.086.822,3.13,1.231.3.117.6.227.9.351a1.92,1.92,0,0,1,.294.206c-.632.136-.374.614-.476.931a3.3,3.3,0,0,0-.071.708h-1.532c-.187,0-.258-.078-.264-.264a4.239,4.239,0,0,0-.078-.863c-.037-.157-.2-.284-.31-.425a1.482,1.482,0,0,0-.35.315,7.42,7.42,0,0,0-.455.893.4.4,0,0,1-.432.28C493.515,83.333,493.008,83.344,492.42,83.344Z" transform="translate(-431.07 -69.981)"/>
    <path id="Path_18" data-name="Path 18" d="M771.472,89.515c-.47,0-.93-.021-1.387,0a3.024,3.024,0,0,1-2.29-.665,17.985,17.985,0,0,0-2.767-1.721,18.742,18.742,0,0,0-1.824-.821c-.542-.23-.617-.324-.538-.79C763.352,85.487,771.357,89.081,771.472,89.515Z" transform="translate(-667.623 -74.864)"/>
    <path id="Path_19" data-name="Path 19" d="M757,118.9c.074-.343.125-.589.184-.872h1.946c.211,0,.422-.066.632-.06,1.079.037,2.158.09,3.239.132,1.2.047,2.406.09,3.613.136.506.02,1.01.042,1.515.072.063,0,.125.06.184.092-.062.042-.125.117-.188.125-.5.032-.987.051-1.481.072-1.055.046-2.112.107-3.167.133-1.5.037-3,.042-4.5.074C758.321,118.818,757.683,118.864,757,118.9Z" transform="translate(-662.686 -103.269)"/>
    <path id="Path_20" data-name="Path 20" d="M692.51,116.17h2.574c-.032.411-.061.772-.093,1.165h-2.48Z" transform="translate(-606.231 -101.697)"/>
    <path id="Path_21" data-name="Path 21" d="M666.464,116.222h-1.925a.249.249,0,0,1-.186-.125c-.138-.414-.259-.832-.4-1.308h.872c.341,0,.684.011,1.024,0,.189-.009.35.014.394.217C666.324,115.383,666.385,115.773,666.464,116.222Z" transform="translate(-581.229 -100.486)"/>
    <path id="Path_22" data-name="Path 22" d="M674.31,99.645h-.451c-.232-1.306-.486-2.616-1.789-3.371.031-.132.064-.27.095-.4C673.148,95.8,674.586,97.753,674.31,99.645Z" transform="translate(-588.338 -83.923)"/>
    <path id="Path_23" data-name="Path 23" d="M397.518,109.223l-2.128-.1c.088-.416.152-.8.259-1.177.049-.167.182-.431.285-.436.3-.012.665-.193.862.26.167.385.419.731.623,1.1A1.941,1.941,0,0,1,397.518,109.223Z" transform="translate(-346.129 -94.073)"/>
    <path id="Path_24" data-name="Path 24" d="M701.637,60.5c.655.1,1.289.2,1.922.3a3.383,3.383,0,0,1,.451.125c.511.157.583.275.5.872-.313-.061-.623-.125-.932-.179-.4-.065-.791-.135-1.19-.167A.739.739,0,0,1,701.637,60.5Z" transform="translate(-614.208 -52.962)"/>
    <path id="Path_25" data-name="Path 25" d="M760.751,104.55a26.654,26.654,0,0,1,2.755,1.278c-.015.052-.03.1-.046.154a3.724,3.724,0,0,0-.872-.067c-.782.125-1.294-.4-1.88-.735-.1-.055-.049-.366-.067-.558Z" transform="translate(-665.873 -91.524)"/>
  </g>
</svg>
