<svg xmlns="http://www.w3.org/2000/svg" width="136.783" height="58.056" viewBox="0 0 136.783 58.056">
  <g id="icon-active" transform="translate(-553.627 -3045.008)">
    <g id="mountains" transform="translate(553.627 3045.008)">
      <path id="Path_1" data-name="Path 1" d="M98.72,58.056H1.62V0H138.4V58.056H98.975c.468-.344.349-.625-.061-.936-.978-.746-1.911-1.551-2.905-2.276a44.4,44.4,0,0,0-4.339-2.992c-2.908-1.621-5.879-3.132-8.87-4.6a46.043,46.043,0,0,0-4.711-1.911A26.346,26.346,0,0,0,69.234,44.1c-1.972,0-3.949.063-5.916.192-1.9.126-3.8.388-5.7.564-1.31.122-2.625.189-3.937.29-2.4.187-4.809.393-7.125-.468-1.387-.515-2.732-1.17-4.073-1.792A12.866,12.866,0,0,0,36.756,41.6a1.446,1.446,0,0,0-.7.283c-.058.037-.014.412.054.435a2.545,2.545,0,0,0,.735.1c.187,0,.379-.03.568-.023a13.23,13.23,0,0,1,5.507,1.637,14.7,14.7,0,0,0,5.736,1.986,47.386,47.386,0,0,0,5.025-.047c2.056-.094,4.126-.147,6.159-.437a61.725,61.725,0,0,1,12.007-.484,26.464,26.464,0,0,1,10.248,2.807c2.784,1.357,5.488,2.87,8.265,4.243a27.713,27.713,0,0,1,5.018,3.338C96.479,56.325,97.6,57.185,98.72,58.056ZM35.773,26.782c.444-.3.83-.6,1.254-.833,1.7-.919,3.385-1.871,5.121-2.709a38.364,38.364,0,0,1,8.8-3.123,8.948,8.948,0,0,0,5.6-3.357,12.789,12.789,0,0,1,4.129-3.546,10.343,10.343,0,0,0,5.207-6.15c.234-.767.533-1.521.842-2.264a8.475,8.475,0,0,1,2.328-3.3c.646-.545,1.436-.538,1.771,0,1.1,1.811,2.131,3.666,3.3,5.432,1.092,1.661,2.426,3.09,4.608,3.24q1.462.1,2.931.11a19.481,19.481,0,0,1,14,5.759,14.365,14.365,0,0,0,6.417,3.815,4.643,4.643,0,0,1,2.7,1.7,28.727,28.727,0,0,0,5.132,5.2,6.912,6.912,0,0,0,4.788,1.766c.91-.033,1.825-.049,2.732-.133,2.908-.276,5.7.4,8.512.957,3.832.758,7.659,1.544,11.488,2.309.32.065.763.182.812-.3.016-.164-.365-.487-.606-.538-4.159-.856-8.332-1.637-12.487-2.529a27.821,27.821,0,0,0-9.544-.608,6.061,6.061,0,0,1-4.636-1.219,23.587,23.587,0,0,1-4.943-4.756,6.884,6.884,0,0,0-3.977-2.777,11.736,11.736,0,0,1-5.642-3.4,20.49,20.49,0,0,0-9.315-5.38,23.961,23.961,0,0,0-7.327-.737,5.379,5.379,0,0,1-4.828-2.791c-1.17-1.808-2.243-3.691-3.347-5.546A1.6,1.6,0,0,0,69.882.246a3.8,3.8,0,0,0-2.494,1.722,10.957,10.957,0,0,0-1.974,3.82,10.37,10.37,0,0,1-5.13,6.653,16.489,16.489,0,0,0-4.978,4.4,5.553,5.553,0,0,1-2.447,1.766,20.7,20.7,0,0,1-2.433.746,35.907,35.907,0,0,0-9.886,3.806c-1.787,1.013-3.549,2.07-5.333,3.088a.6.6,0,0,1-.547-.033c-.468-.421-.891-.894-1.343-1.333a4.158,4.158,0,0,0-1.025-.919c-1.329-.611-2.678-1.186-4.056-1.677a25.182,25.182,0,0,1-4.84-2.068,11.147,11.147,0,0,0-6.082-1.8,5.523,5.523,0,0,1-2.138-.529,6.082,6.082,0,0,0-3.17-.468c-1.305.164-2.6.416-3.909.533-1.9.173-3.813.248-5.717.4-.218.019-.578.218-.6.367-.073.4.318.391.629.379.531-.023,1.06-.054,1.588-.1,2.2-.2,4.4-.367,6.587-.615a7.969,7.969,0,0,1,4.679.468,4.379,4.379,0,0,0,1.787.377,11.284,11.284,0,0,1,5.076,1.275,38.624,38.624,0,0,0,3.509,1.768c1.956.816,3.977,1.5,5.928,2.3a4.247,4.247,0,0,1,1.113.891A12.527,12.527,0,0,0,34.332,27a16.632,16.632,0,0,0,6.346,2.681,5.8,5.8,0,0,1,1.09.351,5.062,5.062,0,0,1,2.749,2.138,13.874,13.874,0,0,0,1.34,1.778,3.13,3.13,0,0,1,.772,1.97,2.468,2.468,0,0,0,1.181,2,5.849,5.849,0,0,0,1.308.643q2.007.716,4.042,1.364A5.469,5.469,0,0,1,55.7,41.55,17.81,17.81,0,0,0,57.217,43.1c.147.133.444.1.674.15,0-.234.077-.543-.04-.674-1.359-1.511-2.662-3.076-4.791-3.621-1.375-.351-2.7-.877-4.042-1.361a1.955,1.955,0,0,1-1.521-1.7A4.519,4.519,0,0,0,46.211,33a8.229,8.229,0,0,1-.936-1.277,5.935,5.935,0,0,0-3.38-2.552,13.741,13.741,0,0,0-1.836-.517,10.91,10.91,0,0,1-4.286-1.869ZM98.858,49.323l-.014.077c-.571.035-1.144.068-1.715.105a9.967,9.967,0,0,0-4.3,1.652.552.552,0,0,0-.164.519.589.589,0,0,0,.526.185,7.652,7.652,0,0,0,.866-.386,16.247,16.247,0,0,1,2.786-1.025,12.884,12.884,0,0,1,5.614.285,4.625,4.625,0,0,0,3.165-.269c.444-.2.884-.414,1.331-.608,2.7-1.17,5.315-2.573,8.253-3.123,2.648-.5,5.3-.975,7.937-1.523,1.8-.374,3.584-.849,5.38-1.3.124-.03.311-.255.288-.328-.051-.152-.234-.365-.351-.367a3.509,3.509,0,0,0-1.256.108,63.538,63.538,0,0,1-8.889,1.871,33.86,33.86,0,0,0-8.772,2.55c-1.212.608-2.484,1.095-3.705,1.684a4.889,4.889,0,0,1-3.45.409C101.23,49.562,100.032,49.489,98.858,49.323Z" transform="translate(-1.62 0)" fill="#fff"/>
      <path id="Path_2" data-name="Path 2" d="M211.359,194.3c-1.116-.87-2.241-1.731-3.345-2.618a27.713,27.713,0,0,0-5.029-3.333c-2.777-1.373-5.481-2.887-8.265-4.243a26.382,26.382,0,0,0-10.248-2.807,61.724,61.724,0,0,0-12.007.484c-2.033.29-4.1.344-6.159.437a47.394,47.394,0,0,1-5.025.047,14.551,14.551,0,0,1-5.736-1.986,13.162,13.162,0,0,0-5.507-1.637c-.189,0-.381.033-.568.023a2.545,2.545,0,0,1-.735-.1c-.068-.023-.112-.4-.054-.435a1.446,1.446,0,0,1,.7-.283,12.866,12.866,0,0,1,5.727,1.282c1.34.632,2.685,1.277,4.073,1.792,2.316.861,4.728.655,7.125.468,1.312-.1,2.627-.168,3.937-.29,1.9-.175,3.8-.437,5.7-.564,1.967-.129,3.944-.2,5.916-.192a26.354,26.354,0,0,1,8.854,1.247,46.04,46.04,0,0,1,4.723,1.906c2.992,1.464,5.963,2.976,8.87,4.6a44.971,44.971,0,0,1,4.339,2.992c.994.725,1.928,1.53,2.905,2.276.409.313.531.594.061.936Z" transform="translate(-114.259 -136.244)"/>
      <path id="Path_3" data-name="Path 3" d="M36.27,27.506a10.91,10.91,0,0,0,4.283,1.871,13.74,13.74,0,0,1,1.836.517,5.9,5.9,0,0,1,3.38,2.552,8.229,8.229,0,0,0,.936,1.277,4.519,4.519,0,0,1,1.287,2.891,1.965,1.965,0,0,0,1.521,1.7c1.338.484,2.667,1.011,4.042,1.361,2.129.545,3.432,2.105,4.791,3.621.117.131.03.444.04.674-.234-.047-.526-.016-.674-.15A17.816,17.816,0,0,1,56.2,42.277a5.469,5.469,0,0,0-2.529-1.621q-2.03-.648-4.042-1.364a5.848,5.848,0,0,1-1.308-.643,2.468,2.468,0,0,1-1.181-2,3.13,3.13,0,0,0-.772-1.97,13.876,13.876,0,0,1-1.34-1.778,5.062,5.062,0,0,0-2.767-2.126,5.8,5.8,0,0,0-1.09-.351,16.673,16.673,0,0,1-6.346-2.681,12.526,12.526,0,0,1-1.654-1.546,4.445,4.445,0,0,0-1.113-.891c-1.963-.8-3.977-1.488-5.928-2.3a38.626,38.626,0,0,1-3.509-1.768,11.246,11.246,0,0,0-5.076-1.275,4.379,4.379,0,0,1-1.787-.377,7.772,7.772,0,0,0-4.679-.468c-2.19.248-4.391.419-6.587.615-.529.047-1.057.077-1.588.1-.3,0-.681.026-.627-.4.021-.15.381-.349.6-.367,1.9-.147,3.815-.234,5.717-.4,1.308-.117,2.6-.37,3.909-.533a6.082,6.082,0,0,1,3.17.468,5.523,5.523,0,0,0,2.138.529,11.112,11.112,0,0,1,6.082,1.8A25.036,25.036,0,0,0,28.728,23c1.378.491,2.728,1.067,4.056,1.677a4.076,4.076,0,0,1,1.025.919c.451.44.873.912,1.343,1.333a.6.6,0,0,0,.547.033c1.785-1.018,3.546-2.075,5.334-3.088a35.908,35.908,0,0,1,9.888-3.8,20.7,20.7,0,0,0,2.433-.746A5.554,5.554,0,0,0,55.8,17.567a16.488,16.488,0,0,1,4.978-4.4,10.37,10.37,0,0,0,5.132-6.653,10.957,10.957,0,0,1,1.974-3.82A3.8,3.8,0,0,1,70.381.972a1.6,1.6,0,0,1,1.708.833c1.1,1.855,2.168,3.743,3.347,5.546a5.379,5.379,0,0,0,4.828,2.791,23.6,23.6,0,0,1,7.327.737,20.379,20.379,0,0,1,9.313,5.4,11.736,11.736,0,0,0,5.642,3.4,6.884,6.884,0,0,1,3.977,2.777,23.885,23.885,0,0,0,4.943,4.756,6.061,6.061,0,0,0,4.636,1.219,27.81,27.81,0,0,1,9.544.608c4.155.887,8.328,1.673,12.487,2.529.234.051.622.374.606.538-.049.482-.491.365-.812.3-3.829-.765-7.656-1.551-11.488-2.309-2.807-.557-5.614-1.233-8.513-.957-.908.084-1.822.1-2.732.133a6.912,6.912,0,0,1-4.788-1.766,28.726,28.726,0,0,1-5.132-5.2,4.613,4.613,0,0,0-2.7-1.7,14.315,14.315,0,0,1-6.417-3.815,19.543,19.543,0,0,0-14-5.769q-1.467,0-2.931-.11c-2.183-.15-3.509-1.579-4.608-3.24-1.17-1.766-2.194-3.621-3.3-5.432-.335-.55-1.125-.557-1.771,0a8.475,8.475,0,0,0-2.328,3.3c-.309.744-.6,1.5-.842,2.264a10.343,10.343,0,0,1-5.207,6.15,12.789,12.789,0,0,0-4.129,3.546,8.948,8.948,0,0,1-5.6,3.35,38.364,38.364,0,0,0-8.8,3.118c-1.736.859-3.422,1.794-5.116,2.714C37.1,26.9,36.714,27.207,36.27,27.506Z" transform="translate(-2.117 -0.724)"/>
      <path id="Path_4" data-name="Path 4" d="M396.913,190.819a33.56,33.56,0,0,1,3.509.522,4.889,4.889,0,0,0,3.45-.409c1.221-.589,2.494-1.076,3.705-1.684a33.431,33.431,0,0,1,8.772-2.55,63.081,63.081,0,0,0,8.889-1.871,3.509,3.509,0,0,1,1.256-.108c.129,0,.3.215.351.367.023.073-.164.3-.288.327-1.785.447-3.567.922-5.38,1.3-2.636.547-5.289,1.025-7.937,1.523-2.938.554-5.551,1.951-8.253,3.123-.447.194-.887.409-1.331.608a4.624,4.624,0,0,1-3.165.269,12.885,12.885,0,0,0-5.614-.285,15.963,15.963,0,0,0-2.786,1.025,7.646,7.646,0,0,1-.866.386.589.589,0,0,1-.526-.185.552.552,0,0,1,.164-.519,9.967,9.967,0,0,1,4.3-1.652c.571-.037,1.144-.07,1.715-.105Z" transform="translate(-299.675 -141.495)"/>
    </g>
  </g>
</svg>
