<svg xmlns="http://www.w3.org/2000/svg" width="164.13" height="164.396" viewBox="0 0 164.13 164.396">
  <path id="Path_127" data-name="Path 127" d="M607.055,191.918s8.1-27.76,8.675-39.326,0-32.965,0-32.965,0-3.47,2.313-4.627c16.625.019,7.666,79.833,6.939,79.81,5.14-1.056,51.943-9.893,56.677-16.773,6.362-4.625,8.1-5.2,9.832-4.625s4.627,2.892,1.735,5.783c-20.371,25.743-39.916,23.91-67.086,30.651,0,0,15.037,18.507,20.242,28.338,8.766,15.242,30.512,25.41,32.388,32.964-.58,1.736-.58,1.736-2.315,2.314-19.915.16-53.4-37.729-61.881-52.05-1.213,3.93-28,42.039-28.339,50.314,0,2.892-1.734,8.676-4.625,7.519-16.078-5.017,16.983-61.468,18.507-69.978-4.138-5.883-60.826-35.039-65.93-40.483-16.792-17.156,25.192.346,49.157,11.567Z" transform="translate(-530.324 -115)" fill="#750D37"/>
</svg>
